<svg width="573" height="777" viewBox="0 0 573 777" fill="none" xmlns="http://www.w3.org/2000/svg">
<mask id="path-1-inside-1_346_3070" fill="white">
<path d="M291.078 122.557C293.604 141.754 254.989 181.255 252.112 186.239H253.083C251.985 186.955 251.724 186.91 252.112 186.239H201.57L291.078 122.557Z"/>
</mask>
<path d="M291.078 122.557L368.9 112.321L351.885 -17.0338L245.576 58.6006L291.078 122.557ZM253.083 186.239L295.961 251.985L517.128 107.747H253.083V186.239ZM201.57 186.239L156.068 122.282L-44.1526 264.73H201.57V186.239ZM291.078 122.557L213.257 132.794C211.731 121.195 213.756 112.674 214.664 109.431C215.208 107.491 215.733 106.112 216.039 105.367C216.352 104.602 216.557 104.205 216.558 104.203C216.564 104.191 216.447 104.419 216.165 104.897C215.885 105.37 215.496 105.999 214.98 106.787C213.925 108.395 212.561 110.328 210.884 112.558C207.464 117.106 203.66 121.687 199.881 126.147C198.3 128.014 195.996 130.711 194.371 132.665C193.506 133.704 192.281 135.193 191.024 136.813C190.384 137.639 189.491 138.813 188.501 140.207C187.642 141.415 185.958 143.837 184.138 146.989L252.112 186.239L320.085 225.489C316.343 231.969 312.15 236.552 315.061 233.053C316.088 231.818 317.254 230.461 319.657 227.624C323.849 222.676 330.08 215.248 336.358 206.899C342.359 198.917 350.082 187.903 356.362 175.608C360.969 166.588 372.824 142.157 368.9 112.321L291.078 122.557ZM252.112 186.239L184.138 146.989C183.836 147.512 176.68 158.976 174.292 175.182C173.098 183.284 170.826 207.24 187.262 231.166C206.181 258.707 234.301 264.659 249.195 265.199C262.782 265.692 273.095 262.491 276.844 261.25C281.652 259.66 285.342 257.923 287.387 256.905C291.487 254.864 294.599 252.873 295.961 251.985L253.083 186.239L210.206 120.493C211.019 119.963 213.686 118.234 217.441 116.366C219.313 115.434 222.855 113.76 227.538 112.211C231.163 111.012 241.376 107.829 254.886 108.319C269.703 108.856 297.769 114.785 316.657 142.279C333.061 166.16 330.78 190.049 329.599 198.064C327.237 214.094 320.194 225.301 320.085 225.489L252.112 186.239ZM253.083 186.239V107.747H252.112V186.239V264.73H253.083V186.239ZM252.112 186.239V107.747H201.57V186.239V264.73H252.112V186.239ZM201.57 186.239L247.073 250.195L336.581 186.514L291.078 122.557L245.576 58.6006L156.068 122.282L201.57 186.239Z" fill="#6A38F3" mask="url(#path-1-inside-1_346_3070)"/>
<mask id="path-3-inside-2_346_3070" fill="white">
<path d="M280.185 176.455C270.006 166.956 280.74 145.789 287.379 136.393L270.148 160.409C265.007 171.326 274.697 175.655 280.185 176.455Z"/>
</mask>
<path d="M287.379 136.393L336.3 170.96L238.708 101.473L287.379 136.393ZM280.185 176.455L271.548 235.73L461.09 263.347L321.055 132.661L280.185 176.455ZM270.148 160.409L221.478 125.489L218.286 129.937L215.954 134.89L270.148 160.409ZM287.379 136.393L238.457 101.825C232.635 110.065 224.632 123.69 219.987 139.553C216.632 151.011 207.428 190.49 239.315 220.248L280.185 176.455L321.055 132.661C331.555 142.461 335.015 154.302 335.727 161.98C336.348 168.677 335.065 172.869 334.963 173.217C334.74 173.979 334.731 173.766 335.264 172.731C335.483 172.307 335.72 171.888 335.943 171.519C336.173 171.142 336.311 170.945 336.3 170.96L287.379 136.393ZM280.185 176.455L288.822 117.179C293.081 117.8 303.954 119.96 314.216 130.559C320.447 136.994 326.377 146.706 328.108 159.172C329.788 171.271 326.789 180.731 324.342 185.927L270.148 160.409L215.954 134.89C210.936 145.545 207.221 159.641 209.443 175.647C211.716 192.02 219.448 204.911 228.145 213.893C243.339 229.585 261.802 234.31 271.548 235.73L280.185 176.455ZM270.148 160.409L318.818 195.328L336.049 171.313L287.379 136.393L238.708 101.473L221.478 125.489L270.148 160.409Z" fill="#6A38F3" mask="url(#path-3-inside-2_346_3070)"/>
<mask id="path-5-inside-3_346_3070" fill="white">
<path d="M270.224 200.001C253.776 188.598 266.576 168.059 275.033 159.215L253.032 181.782C247.014 192.434 261.986 198.366 270.224 200.001Z"/>
</mask>
<path d="M275.033 159.215L318.328 200.611L232.141 117.4L275.033 159.215ZM270.224 200.001L258.565 258.757L304.352 150.772L270.224 200.001ZM253.032 181.782L210.14 139.967L204.706 145.541L200.877 152.319L253.032 181.782ZM275.033 159.215L231.737 117.818C223.655 126.271 211.536 141.841 205.714 162.116C202.613 172.916 200.383 188.354 204.979 205.538C209.908 223.966 221.251 238.939 236.096 249.23L270.224 200.001L304.352 150.772C310.972 155.362 317.748 163.491 320.715 174.584C323.349 184.434 321.764 192.047 320.864 195.181C320.366 196.914 319.848 198.108 319.545 198.745C319.233 199.4 319.002 199.773 318.924 199.897C318.853 200.007 318.786 200.132 318.328 200.611L275.033 159.215ZM270.224 200.001L281.882 141.245C281.958 141.26 286.084 141.742 292.25 146.372C295.664 148.935 304.347 156.305 308.907 170.125C314.262 186.359 310.719 201.453 305.187 211.246L253.032 181.782L200.877 152.319C192.336 167.437 188.407 187.267 195.135 207.66C201.067 225.64 212.88 236.592 220.314 242.174C234.52 252.841 250.252 257.107 258.565 258.757L270.224 200.001ZM253.032 181.782L295.924 223.597L317.925 201.03L275.033 159.215L232.141 117.4L210.14 139.967L253.032 181.782Z" fill="#6A38F3" mask="url(#path-5-inside-3_346_3070)"/>
<mask id="path-7-inside-4_346_3070" fill="white">
<path d="M253.867 185.217C253.88 185.212 253.891 185.212 253.898 185.216L253.867 185.217C253.264 185.431 246.727 194.572 253.898 203.118C246.874 199.011 221.529 194.821 213.964 186.246L253.867 185.217Z"/>
</mask>
<path d="M253.898 185.216L255.442 245.098L463.939 239.721L284.365 133.641L253.898 185.216ZM253.898 203.118L223.664 254.829L299.783 164.611L253.898 203.118ZM213.964 186.246L212.42 126.364L84.172 129.671L169.044 225.875L213.964 186.246ZM253.898 185.216L284.365 133.641C261.005 119.842 239.062 126.902 233.766 128.788L253.867 185.217L273.967 241.645C270.096 243.024 263.66 244.876 255.478 245.093C246.965 245.32 235.235 243.764 223.431 236.791L253.898 185.216ZM253.867 185.217L233.769 128.788C224.144 132.216 217.828 137.325 216.382 138.48C213.858 140.499 211.989 142.329 210.914 143.425C208.699 145.684 207.053 147.713 206.044 149.016C203.899 151.785 202.115 154.543 200.652 157.092C197.723 162.196 194.68 168.918 192.728 177.03C188.473 194.714 189.694 219.795 208.013 241.625L253.898 203.118L299.783 164.611C310.931 177.894 311.835 194.132 309.207 205.056C308.068 209.788 306.323 213.65 304.566 216.713C303.689 218.242 302.458 220.183 300.758 222.378C299.972 223.394 298.52 225.196 296.464 227.294C295.469 228.309 293.669 230.074 291.205 232.045C289.819 233.153 283.552 238.231 273.965 241.646L253.867 185.217ZM253.898 203.118L284.133 151.406C279.037 148.427 274.3 146.538 271.752 145.57C268.836 144.461 266.016 143.537 263.868 142.856C261.703 142.169 259.38 141.467 257.61 140.929C255.67 140.338 254.05 139.841 252.527 139.349C251.016 138.862 249.861 138.463 248.972 138.132C248.059 137.793 247.727 137.635 247.818 137.677C247.847 137.691 248.901 138.176 250.534 139.253C252.056 140.256 255.321 142.58 258.883 146.617L213.964 186.246L169.044 225.875C179.142 237.32 191.092 243.401 196.997 246.167C203.978 249.437 210.899 251.803 215.74 253.365C218.297 254.19 220.749 254.939 222.731 255.542C224.883 256.197 226.333 256.636 227.65 257.053C228.983 257.476 229.356 257.62 229.199 257.561C229.082 257.516 228.559 257.316 227.763 256.957C227.02 256.622 225.543 255.928 223.664 254.829L253.898 203.118ZM213.964 186.246L215.508 246.127L255.411 245.099L253.867 185.217L252.323 125.335L212.42 126.364L213.964 186.246ZM253.867 185.217L255.411 245.099L255.442 245.098L253.898 185.216L252.354 125.334L252.323 125.335L253.867 185.217Z" fill="#6A38F3" mask="url(#path-7-inside-4_346_3070)"/>
<mask id="path-9-inside-5_346_3070" fill="white">
<path d="M95.6996 122.557C93.1745 141.754 131.789 181.255 134.666 186.239H133.695C134.793 186.955 135.054 186.91 134.666 186.239H185.208L95.6996 122.557Z"/>
</mask>
<path d="M95.6996 122.557L17.8783 112.321L34.8933 -17.0338L141.202 58.6006L95.6996 122.557ZM133.695 186.239L90.8175 251.985L-130.35 107.747H133.695V186.239ZM185.208 186.239L230.71 122.282L430.931 264.73H185.208V186.239ZM95.6996 122.557L173.521 132.794C175.047 121.195 173.022 112.674 172.114 109.431C171.571 107.491 171.045 106.112 170.739 105.367C170.426 104.602 170.221 104.205 170.22 104.203C170.214 104.191 170.331 104.419 170.614 104.897C170.893 105.37 171.282 105.999 171.799 106.787C172.853 108.395 174.217 110.328 175.894 112.558C179.314 117.106 183.118 121.687 186.897 126.147C188.478 128.014 190.782 130.711 192.407 132.665C193.272 133.704 194.497 135.193 195.754 136.813C196.394 137.639 197.287 138.813 198.278 140.207C199.136 141.415 200.82 143.837 202.64 146.989L134.666 186.239L66.6928 225.489C70.4347 231.969 74.6281 236.552 71.7175 233.053C70.6899 231.818 69.5243 230.461 67.1206 227.624C62.9286 222.676 56.6976 215.248 50.4203 206.899C44.4189 198.917 36.6957 187.903 30.4161 175.608C25.8093 166.588 13.9536 142.157 17.8783 112.321L95.6996 122.557ZM134.666 186.239L202.64 146.989C202.942 147.512 210.098 158.976 212.486 175.182C213.68 183.284 215.952 207.24 199.516 231.166C180.597 258.707 152.477 264.659 137.583 265.199C123.996 265.692 113.683 262.491 109.934 261.25C105.127 259.66 101.436 257.923 99.3913 256.905C95.2911 254.864 92.1795 252.873 90.8175 251.985L133.695 186.239L176.572 120.493C175.759 119.963 173.092 118.234 169.337 116.366C167.465 115.434 163.923 113.76 159.24 112.211C155.615 111.012 145.402 107.829 131.892 108.319C117.075 108.856 89.0089 114.785 70.1216 142.279C53.7168 166.16 55.9983 190.049 57.1791 198.064C59.541 214.094 66.5844 225.301 66.6928 225.489L134.666 186.239ZM133.695 186.239V107.747H134.666V186.239V264.73H133.695V186.239ZM134.666 186.239V107.747H185.208V186.239V264.73H134.666V186.239ZM185.208 186.239L139.705 250.195L50.197 186.514L95.6996 122.557L141.202 58.6006L230.71 122.282L185.208 186.239Z" fill="#6A38F3" mask="url(#path-9-inside-5_346_3070)"/>
<mask id="path-11-inside-6_346_3070" fill="white">
<path d="M106.593 176.455C116.772 166.956 106.038 145.789 99.3993 136.393L116.63 160.409C121.771 171.326 112.081 175.655 106.593 176.455Z"/>
</mask>
<path d="M99.3993 136.393L50.478 170.96L148.07 101.473L99.3993 136.393ZM106.593 176.455L115.23 235.73L-74.3124 263.347L65.7236 132.661L106.593 176.455ZM116.63 160.409L165.3 125.489L168.492 129.937L170.824 134.89L116.63 160.409ZM99.3993 136.393L148.321 101.825C154.143 110.065 162.146 123.69 166.791 139.553C170.146 151.011 179.35 190.49 147.463 220.248L106.593 176.455L65.7236 132.661C55.2227 142.461 51.7627 154.302 51.0511 161.98C50.4302 168.677 51.7129 172.869 51.8149 173.217C52.038 173.979 52.0475 173.766 51.5138 172.731C51.2953 172.307 51.0584 171.888 50.8347 171.519C50.6053 171.142 50.4674 170.945 50.478 170.96L99.3993 136.393ZM106.593 176.455L97.9565 117.179C93.6975 117.8 82.8236 119.96 72.5621 130.559C66.3309 136.994 60.4006 146.706 58.6699 159.172C56.9901 171.271 59.989 180.731 62.4361 185.927L116.63 160.409L170.824 134.89C175.842 145.545 179.557 159.641 177.335 175.647C175.062 192.02 167.33 204.911 158.633 213.893C143.439 229.585 124.977 234.31 115.23 235.73L106.593 176.455ZM116.63 160.409L67.9597 195.328L50.729 171.313L99.3993 136.393L148.07 101.473L165.3 125.489L116.63 160.409Z" fill="#6A38F3" mask="url(#path-11-inside-6_346_3070)"/>
<mask id="path-13-inside-7_346_3070" fill="white">
<path d="M116.554 200.001C133.002 188.598 120.202 168.059 111.746 159.215L133.746 181.782C139.764 192.434 124.792 198.366 116.554 200.001Z"/>
</mask>
<path d="M111.746 159.215L68.4497 200.611L154.637 117.4L111.746 159.215ZM116.554 200.001L128.213 258.757L82.4263 150.772L116.554 200.001ZM133.746 181.782L176.638 139.967L182.072 145.541L185.901 152.319L133.746 181.782ZM111.746 159.215L155.041 117.818C163.123 126.271 175.242 141.841 181.064 162.116C184.165 172.916 186.395 188.354 181.799 205.538C176.87 223.966 165.527 238.939 150.682 249.23L116.554 200.001L82.4263 150.772C75.8058 155.362 69.0303 163.491 66.0634 174.584C63.429 184.434 65.0141 192.047 65.914 195.181C66.4117 196.914 66.9299 198.108 67.2332 198.745C67.5449 199.4 67.7758 199.773 67.8546 199.897C67.9249 200.007 67.9917 200.132 68.4497 200.611L111.746 159.215ZM116.554 200.001L104.896 141.245C104.82 141.26 100.694 141.742 94.5283 146.372C91.1142 148.935 82.431 156.305 77.8713 170.125C72.5156 186.359 76.0594 201.453 81.5916 211.246L133.746 181.782L185.901 152.319C194.442 167.437 198.371 187.267 191.643 207.66C185.711 225.64 173.898 236.592 166.464 242.174C152.258 252.841 136.527 257.107 128.213 258.757L116.554 200.001ZM133.746 181.782L90.8543 223.597L68.8536 201.03L111.746 159.215L154.637 117.4L176.638 139.967L133.746 181.782Z" fill="#6A38F3" mask="url(#path-13-inside-7_346_3070)"/>
<mask id="path-15-inside-8_346_3070" fill="white">
<path d="M132.911 185.217C132.898 185.212 132.887 185.212 132.88 185.216L132.911 185.217C133.514 185.431 140.052 194.572 132.88 203.118C139.905 199.011 165.249 194.821 172.814 186.246L132.911 185.217Z"/>
</mask>
<path d="M132.88 185.216L131.336 245.098L-77.1611 239.721L102.413 133.641L132.88 185.216ZM132.88 203.118L163.114 254.829L86.995 164.611L132.88 203.118ZM172.814 186.246L174.358 126.364L302.606 129.671L217.734 225.875L172.814 186.246ZM132.88 185.216L102.413 133.641C125.773 119.842 147.716 126.902 153.012 128.788L132.911 185.217L112.811 241.645C116.682 243.024 123.118 244.876 131.3 245.093C139.814 245.32 151.543 243.764 163.347 236.791L132.88 185.216ZM132.911 185.217L153.009 128.788C162.634 132.216 168.95 137.325 170.396 138.48C172.92 140.499 174.789 142.329 175.864 143.425C178.079 145.684 179.725 147.713 180.734 149.016C182.879 151.785 184.663 154.543 186.126 157.092C189.055 162.196 192.099 168.918 194.05 177.03C198.305 194.714 197.084 219.795 178.765 241.625L132.88 203.118L86.995 164.611C75.8474 177.894 74.9431 194.132 77.5713 205.056C78.71 209.788 80.4547 213.65 82.2121 216.713C83.0893 218.242 84.3198 220.183 86.02 222.378C86.8066 223.394 88.2577 225.196 90.314 227.294C91.3095 228.309 93.1088 230.074 95.5732 232.045C96.9591 233.153 103.226 238.231 112.813 241.646L132.911 185.217ZM132.88 203.118L102.646 151.406C107.741 148.427 112.478 146.538 115.026 145.57C117.942 144.461 120.762 143.537 122.91 142.856C125.076 142.169 127.399 141.467 129.168 140.929C131.108 140.338 132.728 139.841 134.251 139.349C135.763 138.862 136.917 138.463 137.806 138.132C138.719 137.793 139.051 137.635 138.96 137.677C138.931 137.691 137.878 138.176 136.244 139.253C134.722 140.256 131.457 142.58 127.895 146.617L172.814 186.246L217.734 225.875C207.636 237.32 195.686 243.401 189.782 246.167C182.8 249.437 175.879 251.803 171.038 253.365C168.481 254.19 166.029 254.939 164.047 255.542C161.895 256.197 160.445 256.636 159.128 257.053C157.795 257.476 157.422 257.62 157.579 257.561C157.696 257.516 158.219 257.316 159.015 256.957C159.758 256.622 161.235 255.928 163.114 254.829L132.88 203.118ZM172.814 186.246L171.27 246.127L131.367 245.099L132.911 185.217L134.455 125.335L174.358 126.364L172.814 186.246ZM132.911 185.217L131.367 245.099L131.336 245.098L132.88 185.216L134.424 125.334L134.455 125.335L132.911 185.217Z" fill="#6A38F3" mask="url(#path-15-inside-8_346_3070)"/>
<ellipse cx="192.978" cy="103.699" rx="100.996" ry="83.5826" fill="#C6E700"/>
<path d="M183.941 115.672C183.003 129.26 203.768 128.912 201.543 115.672" stroke="black" stroke-width="2.32174" stroke-linecap="round"/>
<mask id="path-19-inside-9_346_3070" fill="white">
<path d="M77.1446 94.5001C82.9305 81.9554 96.5588 86.7709 101.841 93.2454L96.6821 113.768C88.2979 110.906 71.3586 107.045 77.1446 94.5001Z"/>
</mask>
<path d="M101.841 93.2454L167.035 40.0585L193.738 72.7898L183.439 113.757L101.841 93.2454ZM77.1446 94.5001L153.547 129.739L77.1446 94.5001ZM96.6821 113.768L178.281 134.28L156 222.914L69.5065 193.395L96.6821 113.768ZM101.841 93.2454L36.6473 146.432C47.0872 159.229 62.4309 168.708 81.898 170.517C93.3163 171.578 108.493 170.049 123.66 161.596C139.224 152.922 148.641 140.376 153.547 129.739L77.1446 94.5001L0.742348 59.2614C8.54144 42.352 21.8317 25.7033 41.7427 14.6068C61.258 3.7308 81.2564 1.45819 97.4654 2.96417C126.514 5.66305 151.313 20.7872 167.035 40.0585L101.841 93.2454ZM77.1446 94.5001L153.547 129.739C159.926 115.908 164.1 93.6748 154.231 70.0126C145.79 49.775 131.612 39.8516 126.655 36.7083C123.604 34.7738 121.162 33.6016 119.885 33.0257C118.562 32.4287 117.723 32.1309 117.694 32.1203C117.678 32.1148 117.928 32.2044 118.99 32.5462C119.545 32.7251 121.897 33.4709 123.858 34.1401L96.6821 113.768L69.5065 193.395C73.963 194.916 62.3316 191.035 60.8636 190.508C56.1188 188.805 46.5992 185.198 36.5442 178.822C27.0273 172.788 9.17531 159.368 -1.07628 134.789C-12.7562 106.785 -8.52983 79.3647 0.742349 59.2614L77.1446 94.5001ZM96.6821 113.768L15.0836 93.2557L20.2424 72.7334L101.841 93.2454L183.439 113.757L178.281 134.28L96.6821 113.768Z" fill="#C6E700" mask="url(#path-19-inside-9_346_3070)"/>
<path d="M85.6979 96.2544L95.6634 103.785L88.5393 105.539" stroke="black" stroke-width="0.807557" stroke-linecap="round"/>
<mask id="path-22-inside-10_346_3070" fill="white">
<path d="M304.929 95.8771C299.143 83.3324 285.514 88.1478 280.232 94.6224L285.391 115.145C293.775 112.283 310.715 108.422 304.929 95.8771Z"/>
</mask>
<path d="M280.232 94.6224L215.039 41.4354L188.335 74.1668L198.634 115.134L280.232 94.6224ZM304.929 95.8771L228.526 131.116L304.929 95.8771ZM285.391 115.145L203.793 135.657L226.073 224.291L312.567 194.772L285.391 115.145ZM280.232 94.6224L345.426 147.809C334.986 160.606 319.642 170.085 300.175 171.894C288.757 172.955 273.581 171.426 258.413 162.973C242.85 154.299 233.433 141.753 228.526 131.116L304.929 95.8771L381.331 60.6384C373.532 43.7289 360.242 27.0802 340.331 15.9838C320.815 5.10776 300.817 2.83514 284.608 4.34112C255.56 7.04001 230.761 22.1641 215.039 41.4354L280.232 94.6224ZM304.929 95.8771L228.526 131.116C222.147 117.285 217.973 95.0518 227.842 71.3896C236.283 51.1519 250.461 41.2285 255.418 38.0852C258.469 36.1508 260.911 34.9785 262.188 34.4027C263.511 33.8057 264.35 33.5079 264.38 33.4973C264.395 33.4917 264.145 33.5813 263.084 33.9231C262.528 34.102 260.176 34.8479 258.216 35.5171L285.391 115.145L312.567 194.772C308.11 196.293 319.742 192.412 321.21 191.885C325.954 190.182 335.474 186.575 345.529 180.199C355.046 174.165 372.898 160.745 383.15 136.166C394.829 108.162 390.603 80.7417 381.331 60.6384L304.929 95.8771ZM285.391 115.145L366.99 94.6326L361.831 74.1104L280.232 94.6224L198.634 115.134L203.793 135.657L285.391 115.145Z" fill="#C6E700" mask="url(#path-22-inside-10_346_3070)"/>
<path d="M296.375 97.6313L286.41 105.162L293.534 106.915" stroke="black" stroke-width="0.807557" stroke-linecap="round"/>
<path d="M224.321 82.8961C227.05 82.5092 232.881 83.1283 234.374 88.7005" stroke="black" stroke-width="1.54783" stroke-linecap="round"/>
<path d="M164.723 83.6701C161.994 83.2831 156.163 83.9022 154.669 89.4744" stroke="black" stroke-width="1.54783" stroke-linecap="round"/>
<path d="M221.225 112.986V95.96" stroke="black" stroke-width="6.96521" stroke-linecap="round"/>
<path d="M220.504 93.2952L220.848 88.1312M222.57 93.2952L223.947 88.1312M223.947 94.6722L226.701 89.8525" stroke="black" stroke-width="2.06557" stroke-linecap="round"/>
<path d="M167.353 112.986V95.96" stroke="black" stroke-width="6.96521" stroke-linecap="round"/>
<path d="M168.074 93.2952L167.73 88.1312M166.008 93.2952L164.631 88.1312M164.631 94.6722L161.877 89.8525" stroke="black" stroke-width="2.06557" stroke-linecap="round"/>
<path d="M195.701 274.003C195.862 274.633 196.025 275.274 196.185 275.927C200.004 291.47 202.495 308.636 204.287 326.236H185.108C186.976 312.248 189.568 297.626 193.037 283.814C193.91 280.338 194.801 277.068 195.701 274.003Z" stroke="#6A38F3" stroke-width="128.47" stroke-linecap="round"/>
<path d="M229.225 239.608C228.112 239.643 227.251 240.572 227.286 241.674C227.297 241.949 227.355 242.213 227.469 242.477L227.802 243.211C227.848 243.361 227.768 243.521 227.607 243.567C227.504 243.625 227.389 243.567 227.309 243.475L226.827 242.844C226.448 242.362 225.874 242.064 225.266 242.052C224.153 242.029 223.235 242.913 223.212 244.015C223.201 244.497 223.361 244.956 223.66 245.346L224.142 245.92H224.153C224.245 246.069 224.21 246.252 224.084 246.344C223.981 246.425 223.843 246.425 223.751 246.344L223.143 245.862C222.753 245.564 222.283 245.403 221.812 245.415C220.71 245.438 219.827 246.356 219.85 247.469C219.861 248.077 220.16 248.651 220.642 249.029L221.296 249.534C221.422 249.649 221.422 249.833 221.284 249.936C221.246 249.975 221.198 250.002 221.144 250.012C221.091 250.022 221.035 250.016 220.986 249.993H220.974L220.274 249.672C220.01 249.569 219.746 249.5 219.471 249.488C218.369 249.454 217.44 250.326 217.406 251.439C217.406 252.266 217.865 253.023 218.622 253.344L231.692 259.162L236.96 253.895L231.142 240.825C230.82 240.056 230.028 239.574 229.225 239.608ZM230.178 244.313C230.66 244.302 231.096 244.577 231.279 245.013L234.779 252.862L230.246 248.341L229.179 245.92C228.835 245.197 229.363 244.336 230.178 244.313ZM226.414 247.469C226.724 247.469 227.01 247.584 227.228 247.813L232.748 253.333C233.207 253.769 233.219 254.492 232.783 254.951C232.324 255.41 231.612 255.421 231.13 254.951L225.61 249.431C225.501 249.327 225.414 249.203 225.354 249.064C225.293 248.926 225.261 248.778 225.259 248.627C225.257 248.476 225.285 248.327 225.341 248.187C225.398 248.047 225.481 247.92 225.587 247.813C225.806 247.584 226.104 247.469 226.414 247.469ZM223.292 251.279C223.442 251.279 223.602 251.325 223.717 251.382L226.161 252.461L230.683 256.982L222.81 253.482C221.64 252.977 222.03 251.244 223.292 251.279ZM238.383 255.72L233.517 260.585L234.492 261.561C235.365 262.421 236.627 262.754 237.809 262.444C238.391 262.286 238.922 261.978 239.348 261.551C239.775 261.124 240.083 260.594 240.242 260.011C240.551 258.829 240.219 257.567 239.358 256.695L238.383 255.72Z" fill="white"/>
<path d="M141.808 395.901H183.232C189.464 495.384 182.966 577.509 178.328 733.278H148.377C143.525 601.524 134.171 527.655 141.808 395.901Z" fill="#C6E700"/>
<path d="M207.385 395.901H248.81C255.041 495.384 248.543 577.509 243.906 733.278H213.955C209.103 601.524 199.749 527.655 207.385 395.901Z" fill="#C6E700"/>
<mask id="path-35-inside-11_346_3070" fill="white">
<path d="M176.439 183.836C182.406 199.557 198.472 221.567 214.996 183.836H176.439Z"/>
</mask>
<path d="M176.439 183.836V-189.344H-364.363L-172.454 316.263L176.439 183.836ZM214.996 183.836L556.831 333.545L785.833 -189.344H214.996V183.836ZM176.439 183.836L-172.454 316.263C-162.636 342.13 -146.948 375.983 -122.12 411.121C-102.221 439.285 -47.9565 509.626 52.2859 550.018C184.93 603.465 326.92 576.784 429.376 498.519C507.298 438.995 542.88 365.399 556.831 333.545L214.996 183.836L-126.838 34.1276C-121.149 21.1387 -93.7725 -41.0595 -23.6967 -94.59C15.8102 -124.769 71.5979 -154.027 142.065 -164.536C213.403 -175.175 278.699 -163.424 331.231 -142.256C424.646 -104.616 472.742 -40.3664 487.435 -19.572C507.055 8.19658 518.498 33.4025 525.332 51.4094L176.439 183.836ZM214.996 183.836V-189.344H176.439V183.836V557.016H214.996V183.836Z" fill="#C6E700" mask="url(#path-35-inside-11_346_3070)"/>
<mask id="path-37-inside-12_346_3070" fill="white">
<path d="M222.644 353.901V351.147C222.036 351.262 220.704 351.695 220.234 352.51C219.763 353.325 221.644 353.777 222.644 353.901Z"/>
</mask>
<path d="M222.644 351.147H268.775V295.482L214.078 305.818L222.644 351.147ZM222.644 353.901L216.951 399.68L268.775 406.125V353.901H222.644ZM220.234 352.51L260.185 375.576L260.185 375.576L220.234 352.51ZM222.644 351.147H176.513V353.901H222.644H268.775V351.147H222.644ZM222.644 353.901L228.337 308.123C229.775 308.302 233.919 308.855 239.098 311.08C240.862 311.838 249.307 315.408 256.442 324.422C260.596 329.67 265.106 337.822 266.097 348.558C267.11 359.525 264.052 368.878 260.185 375.576L220.234 352.51L180.283 329.445C176.299 336.346 173.196 345.891 174.226 357.039C175.233 367.957 179.821 376.278 184.101 381.686C191.488 391.017 200.377 394.861 202.677 395.849C208.929 398.535 214.514 399.377 216.951 399.68L222.644 353.901ZM220.234 352.51L260.185 375.576C256.551 381.869 252.165 385.941 249.16 388.293C246.082 390.703 243.27 392.233 241.348 393.155C237.758 394.878 234.342 395.884 231.209 396.476L222.644 351.147L214.078 305.818C210.338 306.525 205.952 307.805 201.427 309.977C198.05 311.598 187.478 316.983 180.283 329.445L220.234 352.51Z" fill="#6A38F3" mask="url(#path-37-inside-12_346_3070)"/>
<mask id="path-39-inside-13_346_3070" fill="white">
<path d="M219.89 363.54V360.786C219.282 360.901 217.95 361.334 217.48 362.149C217.009 362.964 218.89 363.416 219.89 363.54Z"/>
</mask>
<path d="M219.89 360.786H266.021V305.121L211.324 315.457L219.89 360.786ZM219.89 363.54L214.197 409.319L266.021 415.763V363.54H219.89ZM217.48 362.149L257.43 385.214L257.43 385.214L217.48 362.149ZM219.89 360.786H173.758V363.54H219.89H266.021V360.786H219.89ZM219.89 363.54L225.582 317.762C227.02 317.941 231.165 318.494 236.344 320.719C238.108 321.477 246.553 325.047 253.688 334.061C257.842 339.309 262.352 347.461 263.343 358.197C264.355 369.164 261.297 378.517 257.43 385.214L217.48 362.149L177.529 339.083C173.544 345.985 170.442 355.53 171.471 366.678C172.479 377.595 177.066 385.917 181.347 391.325C188.733 400.656 197.623 404.5 199.923 405.488C206.175 408.174 211.759 409.016 214.197 409.319L219.89 363.54ZM217.48 362.149L257.43 385.214C253.797 391.507 249.411 395.58 246.406 397.932C243.328 400.342 240.516 401.872 238.594 402.794C235.004 404.517 231.588 405.523 228.455 406.115L219.89 360.786L211.324 315.457C207.584 316.164 203.198 317.444 198.672 319.616C195.296 321.237 184.723 326.622 177.529 339.083L217.48 362.149Z" fill="#6A38F3" mask="url(#path-39-inside-13_346_3070)"/>
<mask id="path-41-inside-14_346_3070" fill="white">
<path d="M221.955 371.803V369.048C221.348 369.163 220.016 369.596 219.545 370.411C219.075 371.226 220.956 371.678 221.955 371.803Z"/>
</mask>
<path d="M221.955 369.048H268.086V313.384L213.389 323.72L221.955 369.048ZM221.955 371.803L216.262 417.581L268.086 424.026V371.803H221.955ZM219.545 370.411L259.496 393.477L259.496 393.477L219.545 370.411ZM221.955 369.048H175.824V371.803H221.955H268.086V369.048H221.955ZM221.955 371.803L227.648 326.024C229.086 326.203 233.231 326.756 238.41 328.981C240.174 329.739 248.618 333.31 255.753 342.323C259.908 347.571 264.418 355.723 265.409 366.459C266.421 377.426 263.363 386.779 259.496 393.477L219.545 370.411L179.595 347.346C175.61 354.247 172.508 363.792 173.537 374.94C174.545 385.858 179.132 394.179 183.413 399.587C190.799 408.918 199.688 412.762 201.989 413.75C208.24 416.436 213.825 417.278 216.262 417.581L221.955 371.803ZM219.545 370.411L259.496 393.477C255.863 399.77 251.477 403.842 248.472 406.195C245.394 408.604 242.581 410.134 240.66 411.056C237.07 412.78 233.654 413.785 230.521 414.377L221.955 369.048L213.389 323.72C209.65 324.426 205.264 325.706 200.738 327.878C197.362 329.499 186.789 334.885 179.595 347.346L219.545 370.411Z" fill="#6A38F3" mask="url(#path-41-inside-14_346_3070)"/>
<mask id="path-43-inside-15_346_3070" fill="white">
<path d="M226.086 380.753V377.999C225.479 378.114 224.147 378.547 223.677 379.362C223.206 380.177 225.087 380.629 226.086 380.753Z"/>
</mask>
<path d="M226.086 377.999H272.217V322.334L217.521 332.67L226.086 377.999ZM226.086 380.753L220.394 426.532L272.217 432.976V380.753H226.086ZM223.677 379.362L263.627 402.428L263.627 402.428L223.677 379.362ZM226.086 377.999H179.955V380.753H226.086H272.217V377.999H226.086ZM226.086 380.753L231.779 334.975C233.217 335.154 237.362 335.707 242.541 337.932C244.305 338.69 252.749 342.26 259.884 351.274C264.039 356.522 268.549 364.674 269.54 375.41C270.552 386.377 267.494 395.73 263.627 402.428L223.677 379.362L183.726 356.296C179.741 363.198 176.639 372.743 177.668 383.891C178.676 394.808 183.263 403.13 187.544 408.538C194.93 417.869 203.82 421.713 206.12 422.701C212.371 425.387 217.956 426.229 220.394 426.532L226.086 380.753ZM223.677 379.362L263.627 402.428C259.994 408.72 255.608 412.793 252.603 415.145C249.525 417.555 246.712 419.085 244.791 420.007C241.201 421.73 237.785 422.736 234.652 423.328L226.086 377.999L217.521 332.67C213.781 333.377 209.395 334.657 204.869 336.829C201.493 338.45 190.92 343.835 183.726 356.296L223.677 379.362Z" fill="#6A38F3" mask="url(#path-43-inside-15_346_3070)"/>
<path d="M244.867 420.688L249.936 476.114H140.812L145.88 420.688H244.867Z" stroke="black" stroke-width="61.2786" stroke-linecap="round"/>
<mask id="path-46-inside-16_346_3070" fill="white">
<path d="M183.668 15.1477C135.472 18.9344 98.52 32.4387 90.3733 91.5738C142.019 81.3934 231.865 11.361 183.668 15.1477Z"/>
</mask>
<path d="M183.668 15.1477L187.066 58.3914L183.668 15.1477ZM90.3733 91.5738L47.4021 85.6539L39.1035 145.892L98.7623 134.132L90.3733 91.5738ZM183.668 15.1477L180.271 -28.0961C154.386 -26.0624 123.44 -21.0999 97.356 -3.08994C68.8841 16.5689 52.7375 46.9259 47.4021 85.6539L90.3733 91.5738L133.344 97.4937C136.156 77.0866 142.558 71.124 146.648 68.3001C153.126 63.8274 164.754 60.1444 187.066 58.3914L183.668 15.1477ZM90.3733 91.5738L98.7623 134.132C134.232 127.14 176.002 102.433 201.553 81.9997C208.378 76.5417 215.01 70.6379 220.679 64.5553C225.644 59.228 232.775 50.7402 237.016 40.0323C239.222 34.462 241.887 25.2155 240.358 14.0412C238.624 1.37223 231.992 -9.85729 221.975 -17.5221C213.15 -24.2754 203.878 -26.646 197.796 -27.5918C191.419 -28.5834 185.353 -28.4954 180.271 -28.0961L183.668 15.1477L187.066 58.3914C188.008 58.3174 186.888 58.5087 184.465 58.132C182.337 57.801 176.027 56.5566 169.256 51.3758C161.294 45.2834 155.81 36.0725 154.405 25.8031C153.204 17.0283 155.377 10.5622 156.357 8.08796C158.146 3.5721 159.888 2.53895 157.215 5.40674C155.246 7.51918 151.992 10.5508 147.37 14.2465C127.137 30.4276 98.1609 45.827 81.9843 49.0157L90.3733 91.5738Z" fill="#6A38F3" mask="url(#path-46-inside-16_346_3070)"/>
<mask id="path-48-inside-17_346_3070" fill="white">
<path d="M200.874 15.2954C252.103 21.519 280.139 25.629 294.169 91.7216C236.836 72.6286 149.644 9.07185 200.874 15.2954Z"/>
</mask>
<path d="M200.874 15.2954L195.643 58.3559L200.874 15.2954ZM294.169 91.7216L336.6 82.7145L352.329 156.809L280.463 132.876L294.169 91.7216ZM200.874 15.2954L206.105 -27.765C228.753 -25.0136 260.029 -21.9628 285.46 -5.08244C314.341 14.088 328.557 44.8218 336.6 82.7145L294.169 91.7216L251.737 100.729C245.751 72.5287 238.934 68.1613 237.482 67.1977C232.581 63.944 224.224 61.8281 195.643 58.3559L200.874 15.2954ZM294.169 91.7216L280.463 132.876C246.345 121.514 205.932 98.2274 180.227 78.291C173.595 73.1477 167.064 67.5582 161.512 61.79C157.037 57.1415 148.963 48.1642 144.793 36.1366C142.511 29.556 140.008 18.0277 144.341 4.85133C149.071 -9.53519 159.42 -18.377 168.732 -22.9409C183.456 -30.1575 199.009 -28.627 206.105 -27.765L200.874 15.2954L195.643 58.3559C189.931 57.662 197.002 59.8172 206.913 54.9598C213.818 51.5754 222.677 44.3467 226.753 31.9512C230.431 20.7657 228.108 11.6062 226.76 7.71642C224.455 1.0704 221.258 -1.23725 224.014 1.62576C225.692 3.36907 228.746 6.133 233.395 9.73863C252.811 24.798 284.66 42.8359 307.874 50.5667L294.169 91.7216Z" fill="#6A38F3" mask="url(#path-48-inside-17_346_3070)"/>
<mask id="path-50-inside-18_346_3070" fill="white">
<path d="M193.758 28.7969C180.085 53.1775 145.579 97.8298 114.816 84.7937C129.81 80.8325 166.59 64.0874 193.758 28.7969Z"/>
</mask>
<path d="M212.96 38.8947C218.781 28.4262 215.014 15.2207 204.545 9.39931C194.077 3.57796 180.871 7.34522 175.05 17.8137L194.005 28.3542L212.96 38.8947ZM174.841 18.1882C168.982 28.6357 172.702 41.8547 183.149 47.7137C193.597 53.5728 206.816 49.8531 212.675 39.4056L193.758 28.7969L174.841 18.1882ZM194.005 28.3542L175.05 17.8137C174.981 17.9376 174.911 18.0624 174.841 18.1882L193.758 28.7969L212.675 39.4056C212.77 39.2347 212.866 39.0644 212.96 38.8947L194.005 28.3542ZM193.758 28.7969L231.591 50.0145L159.386 2.33669L193.758 28.7969ZM114.816 84.7937L103.737 42.8555L-18.8823 75.2495L97.8917 124.733L114.816 84.7937ZM193.758 28.7969L155.924 7.57928C150.595 17.0824 141.352 30.0004 131.908 38.3788C127.225 42.5341 124.414 43.8416 123.817 44.0516C123.72 44.0855 124.595 43.7628 126.247 43.754C128.027 43.7444 129.979 44.1084 131.74 44.8546L114.816 84.7937L97.8917 124.733C138.154 141.794 172.977 117.919 189.483 103.274C208.401 86.4905 223.248 64.892 231.591 50.0145L193.758 28.7969ZM114.816 84.7937L125.895 126.732C148.598 120.734 194.211 99.3175 228.13 55.2571L193.758 28.7969L159.386 2.33669C138.97 28.8574 111.022 40.9307 103.737 42.8555L114.816 84.7937Z" fill="#6A38F3" mask="url(#path-50-inside-18_346_3070)"/>
<mask id="path-52-inside-19_346_3070" fill="white">
<path d="M190.127 26.7895C202.486 48.9391 234.358 89.1222 264.914 75.7377C250.648 74.7418 215.436 60.7279 190.127 26.7895Z"/>
</mask>
<path d="M170.922 36.8798C165.127 26.3966 168.928 13.2006 179.411 7.40577C189.894 1.61091 203.09 5.41157 208.885 15.8948L189.903 26.3873L170.922 36.8798ZM209.066 16.2212C214.903 26.6812 211.155 39.8923 200.695 45.729C190.235 51.5656 177.024 47.8177 171.187 37.3577L190.127 26.7895L209.066 16.2212ZM189.903 26.3873L208.885 15.8948C208.945 16.0029 209.005 16.1117 209.066 16.2212L190.127 26.7895L171.187 37.3577C171.098 37.1978 171.01 37.0385 170.922 36.8798L189.903 26.3873ZM190.127 26.7895L152.247 47.9254L224.9 0.858504L190.127 26.7895ZM264.914 75.7377L267.934 32.4659L282.318 115.47L264.914 75.7377ZM190.127 26.7895L228.006 5.65363C232.515 13.7343 240.474 24.5871 248.512 31.3039C252.421 34.5711 254.498 35.2906 254.477 35.2844C253.649 35.0373 250.644 34.6325 247.509 36.0054L264.914 75.7377L282.318 115.47C243.861 132.316 210.204 112.35 192.882 97.8739C174.254 82.3078 160.098 61.9943 152.247 47.9254L190.127 26.7895ZM264.914 75.7377L261.893 119.009C246.077 117.905 227.294 111.098 210.113 101.263C191.931 90.856 172.038 75.0939 155.354 52.7205L190.127 26.7895L224.9 0.858504C233.524 12.4235 243.892 20.6376 253.21 25.9708C263.528 31.8771 269.485 32.5742 267.934 32.4659L264.914 75.7377Z" fill="#6A38F3" mask="url(#path-52-inside-19_346_3070)"/>
<mask id="path-54-inside-20_346_3070" fill="white">
<path d="M189.244 19.246C191.348 35.9105 200.857 68.5032 222.482 67.9299C214.132 63.7565 196.305 46.3714 189.244 19.246Z"/>
</mask>
<path d="M167.678 21.5771C166.223 9.68753 174.683 -1.12994 186.572 -2.58437C198.462 -4.0388 209.28 4.42059 210.734 16.3102L189.206 18.9437L167.678 21.5771ZM210.761 16.5283C212.262 28.4122 203.845 39.2626 191.961 40.7636C180.077 42.2645 169.227 33.8475 167.726 21.9637L189.244 19.246L210.761 16.5283ZM189.206 18.9437L210.734 16.3102C210.743 16.3819 210.752 16.4547 210.761 16.5283L189.244 19.246L167.726 21.9637C167.71 21.8346 167.694 21.7058 167.678 21.5771L189.206 18.9437ZM189.244 19.246L146.208 24.6809L231.221 8.31795L189.244 19.246ZM222.482 67.9299L241.874 29.1292L223.631 111.292L222.482 67.9299ZM189.244 19.246L232.279 13.8111C232.538 15.8641 233.099 18.8926 234.022 22.1525C234.961 25.4727 236.018 28.1201 236.934 29.8605C237.972 31.8355 237.949 30.9842 235.884 29.299C234.701 28.3341 232.772 27.0425 230.067 26.0354C227.275 24.9961 224.265 24.4904 221.332 24.5681L222.482 67.9299L223.631 111.292C187.136 112.259 167.707 84.6095 160.152 70.2437C151.656 54.0899 147.68 36.3356 146.208 24.6809L189.244 19.246ZM222.482 67.9299L203.089 106.731C191.099 100.738 179.811 90.0461 171.059 78.7214C161.585 66.4642 152.459 50.1235 147.266 30.174L189.244 19.246L231.221 8.31795C233.089 15.4938 236.407 21.4084 239.7 25.6685C241.336 27.7847 242.766 29.2321 243.657 30.0283C244.851 31.0951 244.341 30.3623 241.874 29.1292L222.482 67.9299Z" fill="#6A38F3" mask="url(#path-54-inside-20_346_3070)"/>
<mask id="path-56-inside-21_346_3070" fill="white">
<path d="M178.161 776.656V732.934H147.866L90.374 746.016C68.5385 759.148 71.1427 769.933 77.2918 776.656H178.161Z"/>
</mask>
<path d="M178.161 732.934H296.587V614.508H178.161V732.934ZM178.161 776.656V895.082H296.587V776.656H178.161ZM77.2918 776.656L-10.0945 856.583L25.1182 895.082H77.2918V776.656ZM90.374 746.016L64.0983 630.542L45.5998 634.751L29.3418 644.528L90.374 746.016ZM147.866 732.934V614.508H134.562L121.59 617.46L147.866 732.934ZM178.161 732.934H59.7345V776.656H178.161H296.587V732.934H178.161ZM178.161 776.656V658.229H77.2918V776.656V895.082H178.161V776.656ZM77.2918 776.656L164.678 696.728C176.04 709.151 200.402 744.339 188.149 792.779C182.89 813.569 172.63 827.741 165.338 835.653C158.29 843.302 152.44 846.883 151.406 847.504L90.374 746.016L29.3418 644.528C9.12809 656.684 -28.6361 683.954 -41.4717 734.699C-56.3437 793.495 -27.6055 837.438 -10.0945 856.583L77.2918 776.656ZM90.374 746.016L116.65 861.491L174.141 848.409L147.866 732.934L121.59 617.46L64.0983 630.542L90.374 746.016ZM147.866 732.934V851.36H178.161V732.934V614.508H147.866V732.934Z" fill="black" mask="url(#path-56-inside-21_346_3070)"/>
<mask id="path-58-inside-22_346_3070" fill="white">
<path d="M213.275 777V733.279H243.57L301.062 746.361C322.897 759.492 320.293 770.277 314.144 777H213.275Z"/>
</mask>
<path d="M213.275 733.279H94.8491V614.853H213.275V733.279ZM213.275 777V895.426H94.8491V777H213.275ZM314.144 777L401.53 856.927L366.318 895.426H314.144V777ZM301.062 746.361L327.338 630.886L345.836 635.095L362.094 644.873L301.062 746.361ZM243.57 733.279V614.853H256.874L269.846 617.804L243.57 733.279ZM213.275 733.279H331.701V777H213.275H94.8491V733.279H213.275ZM213.275 777V658.574H314.144V777V895.426H213.275V777ZM314.144 777L226.758 697.073C215.396 709.495 191.034 744.683 203.287 793.124C208.545 813.914 218.805 828.085 226.097 835.998C233.146 843.646 238.996 847.227 240.03 847.849L301.062 746.361L362.094 644.873C382.308 657.029 420.072 684.298 432.907 735.043C447.779 793.84 419.041 837.782 401.53 856.927L314.144 777ZM301.062 746.361L274.786 861.835L217.295 848.753L243.57 733.279L269.846 617.804L327.338 630.886L301.062 746.361ZM243.57 733.279V851.705H213.275V733.279V614.853H243.57V733.279Z" fill="black" mask="url(#path-58-inside-22_346_3070)"/>
<mask id="path-60-inside-23_346_3070" fill="white">
<path d="M210.866 10.7617C200.958 8.39256 193.707 16.2685 192.62 17.3026C193.079 15.4666 196.114 10.9212 200.882 8.69611C206.046 6.28632 208.456 8.12233 210.866 10.7617Z"/>
</mask>
<path d="M192.62 17.3026L172.581 12.2929L155.344 81.2413L206.852 32.2729L192.62 17.3026ZM210.866 10.7617L206.062 30.851L271.456 46.4881L226.119 -3.16585L210.866 10.7617ZM200.882 8.69611L209.617 27.414L209.617 27.414L200.882 8.69611ZM192.62 17.3026L206.852 32.2729C207.015 32.1178 207.154 31.9809 207.222 31.914C207.292 31.8453 207.377 31.761 207.414 31.7251C207.511 31.6285 207.573 31.5678 207.635 31.5084C207.751 31.3969 207.863 31.2938 207.982 31.1915C208.248 30.9635 208.468 30.812 208.602 30.7362C208.737 30.66 208.557 30.7888 208.07 30.8871C207.813 30.9389 207.487 30.9782 207.113 30.9751C206.734 30.9721 206.374 30.9257 206.062 30.851L210.866 10.7617L215.669 -9.32769C193.133 -14.7165 177.563 3.11649 178.388 2.33244L192.62 17.3026ZM192.62 17.3026L212.659 22.3124C212.339 23.591 211.96 24.4985 211.764 24.9361C211.541 25.4336 211.348 25.7812 211.231 25.9801C211.002 26.3688 210.851 26.5493 210.803 26.6046C210.781 26.631 210.483 27.01 209.617 27.414L200.882 8.69611L192.147 -10.0218C186.513 -7.39269 182.313 -3.62847 179.466 -0.314059C177.092 2.45044 173.923 6.92256 172.581 12.2929L192.62 17.3026ZM200.882 8.69611L209.617 27.414C209.257 27.5818 205.649 29.0947 200.704 27.5379C196.627 26.2546 194.674 23.6628 195.612 24.6892L210.866 10.7617L226.119 -3.16585C224.647 -4.7788 220.284 -9.60825 213.109 -11.867C205.065 -14.3992 197.67 -12.5993 192.147 -10.0218L200.882 8.69611Z" fill="#6A38F3" mask="url(#path-60-inside-23_346_3070)"/>
<mask id="path-62-inside-24_346_3070" fill="white">
<path d="M184.522 2.40394C193.549 7.12467 193.844 17.8257 193.985 19.3201C194.845 17.6341 195.541 12.213 193.407 7.40352C191.096 2.19473 188.073 1.99645 184.522 2.40394Z"/>
</mask>
<path d="M193.985 19.3201L212.386 28.7038L180.099 92.017L173.421 21.2612L193.985 19.3201ZM184.522 2.40394L174.95 20.7079L115.368 -10.4509L182.167 -18.1171L184.522 2.40394ZM193.407 7.40352L174.527 15.7812L174.527 15.7812L193.407 7.40352ZM193.985 19.3201L173.421 21.2612C173.399 21.0371 173.384 20.8423 173.377 20.7472C173.369 20.6495 173.36 20.5299 173.357 20.4791C173.346 20.342 173.34 20.2556 173.332 20.1703C173.318 20.0101 173.301 19.8589 173.279 19.7034C173.228 19.3569 173.161 19.0979 173.11 18.9528C173.058 18.8067 173.109 19.0218 173.412 19.4159C173.572 19.6239 173.792 19.8674 174.076 20.1107C174.364 20.3578 174.665 20.559 174.95 20.7079L184.522 2.40394L194.094 -15.9C214.627 -5.16216 214.656 18.5119 214.549 17.379L193.985 19.3201ZM193.985 19.3201L175.584 9.93632C174.985 11.1104 174.675 12.0438 174.535 12.5024C174.376 13.0238 174.293 13.4126 174.251 13.6397C174.169 14.0831 174.164 14.3186 174.164 14.3914C174.163 14.4262 174.139 14.9078 174.527 15.7812L193.407 7.40352L212.288 -0.974138C214.809 4.70872 215.504 10.3056 215.474 14.6748C215.449 18.3191 214.901 23.7724 212.386 28.7038L193.985 19.3201ZM193.407 7.40352L174.527 15.7812C174.688 16.1437 176.415 19.6544 181.166 21.7285C185.083 23.4382 188.258 22.7665 186.877 22.925L184.522 2.40394L182.167 -18.1171C184.337 -18.3661 190.799 -19.1425 197.693 -16.1332C205.421 -12.7597 209.816 -6.54544 212.288 -0.974137L193.407 7.40352Z" fill="#6A38F3" mask="url(#path-62-inside-24_346_3070)"/>
<mask id="path-64-inside-25_346_3070" fill="white">
<path d="M282.999 161.115C284.812 157.874 284.812 93.9835 279.374 77.1146L288.324 88.8195C288.174 111.403 284.925 157.672 282.999 161.115Z"/>
</mask>
<path d="M279.374 77.1146L222.362 95.4951L326.957 40.7274L279.374 77.1146ZM288.324 88.8195L335.908 52.4323L348.362 68.718L348.225 89.2192L288.324 88.8195ZM279.374 77.1146L336.386 58.7341C340.044 70.081 341.436 83.3716 342.163 91.6766C343.043 101.733 343.544 112.731 343.789 122.757C344.036 132.821 344.044 142.648 343.845 150.512C343.747 154.351 343.586 158.346 343.308 161.921C343.176 163.614 342.952 166.086 342.546 168.775C342.348 170.087 341.983 172.283 341.346 174.884C340.994 176.321 339.424 182.948 335.275 190.362L282.999 161.115L230.723 131.867C228.396 136.027 227.077 139.576 226.431 141.456C225.713 143.548 225.253 145.278 224.981 146.388C224.45 148.557 224.188 150.208 224.088 150.87C223.878 152.259 223.836 153.009 223.867 152.613C223.914 152.007 224.007 150.347 224.08 147.478C224.221 141.924 224.229 134.116 224.022 125.693C223.815 117.233 223.409 108.893 222.816 102.124C222.519 98.7354 222.216 96.2094 221.957 94.5226C221.628 92.3759 221.606 93.1516 222.362 95.4951L279.374 77.1146ZM282.999 161.115L230.724 131.867C228.119 136.522 226.785 140.43 226.318 141.841C225.711 143.674 225.344 145.109 225.167 145.84C224.971 146.647 224.849 147.245 224.79 147.544C224.727 147.865 224.695 148.057 224.69 148.087C224.684 148.126 224.725 147.876 224.807 147.258C224.885 146.666 224.981 145.883 225.091 144.895C225.548 140.798 226.075 134.838 226.582 127.825C227.608 113.637 228.361 97.8692 228.424 88.4199L288.324 88.8195L348.225 89.2192C348.137 102.353 347.191 121.012 346.073 136.465C345.509 144.272 344.853 151.936 344.154 158.189C343.815 161.226 343.391 164.621 342.86 167.805C342.603 169.343 342.194 171.611 341.583 174.127C341.414 174.822 339.766 182.336 335.275 190.363L282.999 161.115ZM288.324 88.8195L240.741 125.207L231.79 113.502L279.374 77.1146L326.957 40.7274L335.908 52.4323L288.324 88.8195Z" fill="#6A38F3" mask="url(#path-64-inside-25_346_3070)"/>
<circle cx="295.107" cy="113.951" r="5.16393" fill="white"/>
<circle cx="91.9921" cy="112.574" r="5.16393" fill="white"/>
<mask id="path-68-inside-26_346_3070" fill="white">
<path d="M106.554 163.524C101.046 160.284 101.046 96.3933 117.571 79.5244L90.374 91.2293C90.8318 113.813 100.702 160.082 106.554 163.524Z"/>
</mask>
<path d="M117.571 79.5244L160.362 121.442L93.8903 24.5023L117.571 79.5244ZM90.374 91.2293L66.6936 36.2072L29.6677 52.1423L30.4847 92.4434L90.374 91.2293ZM117.571 79.5244L74.7795 37.6065C59.4486 53.2568 53.1255 72.9697 50.2148 83.9122C46.7427 96.9656 44.933 110.522 44.0642 122.185C43.1907 133.911 43.1176 145.795 43.9032 156.002C44.2775 160.865 44.9749 167.128 46.4786 173.478C47.1986 176.519 48.5627 181.591 51.1533 187.232C52.7422 190.692 59.4703 205.325 76.183 215.156L106.554 163.524L136.926 111.893C145.75 117.084 151.206 123.382 154.112 127.288C157.146 131.365 158.997 134.997 160.024 137.233C162.018 141.574 162.833 144.924 163.058 145.875C163.572 148.045 163.495 148.653 163.353 146.808C163.106 143.596 163.033 137.846 163.536 131.085C164.045 124.262 164.989 118.48 165.992 114.708C166.482 112.867 166.729 112.489 166.415 113.163C166.225 113.571 164.577 117.14 160.362 121.442L117.571 79.5244ZM106.554 163.524L136.926 111.893C142.11 114.943 145.84 118.225 148.225 120.596C150.669 123.025 152.439 125.237 153.604 126.814C155.848 129.853 157.136 132.304 157.624 133.267C158.608 135.208 158.789 136.009 158.348 134.708C157.568 132.409 156.318 127.94 154.947 121.7C153.628 115.698 152.437 109.151 151.572 103.097C150.667 96.763 150.309 92.2824 150.263 90.0152L90.374 91.2293L30.4847 92.4434C30.8269 109.32 34.2942 130.838 37.9352 147.409C39.8203 155.989 42.1642 165.145 44.8953 173.196C46.2093 177.069 48.1251 182.226 50.7708 187.444C52.0899 190.046 54.1911 193.866 57.2226 197.972C59.7485 201.394 65.8194 209.059 76.183 215.156L106.554 163.524ZM90.374 91.2293L114.054 146.251L141.251 134.547L117.571 79.5244L93.8903 24.5023L66.6936 36.2072L90.374 91.2293Z" fill="#6A38F3" mask="url(#path-68-inside-26_346_3070)"/>
<mask id="path-70-inside-27_346_3070" fill="white">
<path d="M84.5278 450.639L104.709 486.787L132.25 353.901L111.38 341.508L84.5278 450.639Z"/>
</mask>
<path d="M153.38 205.18L125.091 201.161L103.96 349.882L132.25 353.901L160.54 357.921L181.67 209.2L153.38 205.18ZM135.134 245.459L107.396 238.599L83.6422 334.648L111.38 341.508L139.118 348.368L162.872 252.319L135.134 245.459ZM104.709 486.787L54.8112 514.644L129.552 648.517L160.667 498.384L104.709 486.787ZM84.5278 450.639L29.0355 436.985L23.6572 458.843L34.6301 478.497L84.5278 450.639ZM111.38 341.508L140.56 292.372L74.3005 253.023L55.8879 327.854L111.38 341.508ZM132.25 353.901L188.208 365.499L196.481 325.581L161.43 304.765L132.25 353.901ZM104.709 486.787L154.607 458.929L134.426 422.781L84.5278 450.639L34.6301 478.497L54.8112 514.644L104.709 486.787ZM84.5278 450.639L140.02 464.293L166.873 355.162L111.38 341.508L55.8879 327.854L29.0355 436.985L84.5278 450.639ZM132.25 353.901L76.2916 342.304L48.7506 475.189L104.709 486.787L160.667 498.384L188.208 365.499L132.25 353.901ZM111.38 341.508L82.2006 390.644L103.07 403.038L132.25 353.901L161.43 304.765L140.56 292.372L111.38 341.508Z" fill="#DCE0D5" mask="url(#path-70-inside-27_346_3070)"/>
<mask id="path-72-inside-28_346_3070" fill="white">
<path d="M126.742 352.525L100.919 479.677C102.19 481.899 103.453 484.248 104.709 486.787L99.5451 486.443L79.2336 452.016L106.775 342.197L108.152 342.909L126.742 352.525Z"/>
</mask>
<path d="M100.919 479.677L115.426 482.623L116.535 477.161L113.767 472.324L100.919 479.677ZM81.9877 449.951L67.6077 446.436L66.1958 452.212L69.1721 457.36L81.9877 449.951ZM100.919 479.677L86.4119 476.731L85.038 483.497L99.5451 486.443L114.052 489.389L115.426 482.623L100.919 479.677ZM100.919 479.677L113.767 472.324C110.436 466.504 107.069 461.516 103.954 456.889C100.795 452.196 97.8378 447.79 94.8032 442.542L81.9877 449.951L69.1721 457.36C72.7741 463.591 76.2582 468.764 79.3932 473.421C82.5729 478.145 85.3528 482.281 88.0712 487.031L100.919 479.677ZM81.9877 449.951L96.3676 453.466L122.532 346.424L108.152 342.909L93.7716 339.394L67.6077 446.436L81.9877 449.951ZM126.742 352.525L155.756 358.417L160.207 336.501L140.344 326.228L126.742 352.525ZM100.919 479.677L71.9048 473.785L69.6863 484.709L75.2234 494.384L100.919 479.677ZM99.5451 486.443L74.0459 501.487L81.9856 514.944L97.5757 515.984L99.5451 486.443ZM79.2336 452.016L50.5164 444.815L47.5613 456.598L53.7344 467.061L79.2336 452.016ZM106.775 342.197L120.376 315.9L87.1553 298.717L78.0573 334.995L106.775 342.197ZM104.709 486.787L102.74 516.328L154.042 519.748L131.247 473.661L104.709 486.787ZM108.152 342.909L121.753 316.612L121.753 316.612L108.152 342.909ZM126.742 352.525L97.7275 346.632L71.9048 473.785L100.919 479.677L129.933 485.57L155.756 358.417L126.742 352.525ZM99.5451 486.443L125.044 471.398L104.733 436.972L79.2336 452.016L53.7344 467.061L74.0459 501.487L99.5451 486.443ZM79.2336 452.016L107.951 459.218L135.492 349.399L106.775 342.197L78.0573 334.995L50.5164 444.815L79.2336 452.016ZM99.5451 486.443L97.5757 515.984L102.74 516.328L104.709 486.787L106.678 457.246L101.515 456.902L99.5451 486.443ZM104.709 486.787L131.247 473.661C129.708 470.551 128.162 467.674 126.615 464.971L100.919 479.677L75.2234 494.384C76.2189 496.123 77.198 497.945 78.1713 499.913L104.709 486.787ZM106.775 342.197L93.1727 368.494L94.5498 369.206L108.152 342.909L121.753 316.612L120.376 315.9L106.775 342.197ZM108.152 342.909L94.5498 369.206L113.14 378.822L126.742 352.525L140.344 326.228L121.753 316.612L108.152 342.909Z" fill="#F1F6E4" mask="url(#path-72-inside-28_346_3070)"/>
<rect width="21.6101" height="31.6654" transform="matrix(-0.990527 -0.137315 -0.137315 0.990527 141.983 359.477)" fill="#C6E700"/>
<mask id="path-75-inside-29_346_3070" fill="white">
<path d="M162.027 368.358L139.282 365.205L140.541 359.277L161.999 362.252C170.617 365.714 165.894 367.805 162.027 368.358Z"/>
</mask>
<path d="M139.282 365.205L81.7481 352.984L68.6197 414.789L131.205 423.465L139.282 365.205ZM162.027 368.358L153.95 426.618L162.156 427.756L170.356 426.583L162.027 368.358ZM161.999 362.252L183.924 307.674L177.226 304.983L170.075 303.992L161.999 362.252ZM140.541 359.277L148.617 301.017L94.3837 293.499L83.0073 347.056L140.541 359.277ZM139.282 365.205L131.205 423.465L153.95 426.618L162.027 368.358L170.103 310.098L147.358 306.945L139.282 365.205ZM162.027 368.358L170.356 426.583C174.268 426.023 179.853 424.913 185.995 422.549C188.722 421.499 206.637 415.007 217.736 395.623C224.856 383.189 227.933 367.35 223.84 351.151C220.205 336.766 212.252 327.362 207.257 322.49C198.039 313.495 187.865 309.257 183.924 307.674L161.999 362.252L140.073 416.83C139.473 416.589 137.845 415.909 135.654 414.669C133.689 413.556 129.582 411.053 125.108 406.688C120.822 402.507 113.272 393.75 109.789 379.968C105.849 364.372 108.827 349.09 115.653 337.168C121.591 326.799 129.212 320.938 133.254 318.23C137.645 315.288 141.495 313.629 143.737 312.766C148.175 311.058 151.72 310.416 153.698 310.133L162.027 368.358ZM161.999 362.252L170.075 303.992L148.617 301.017L140.541 359.277L132.464 417.537L153.922 420.512L161.999 362.252ZM140.541 359.277L83.0073 347.056L81.7481 352.984L139.282 365.205L196.816 377.426L198.075 371.498L140.541 359.277Z" fill="#C6E700" mask="url(#path-75-inside-29_346_3070)"/>
<mask id="path-77-inside-30_346_3070" fill="white">
<path d="M162.731 377.609L138.037 374.186L139.333 368.263L162.63 371.493C172.013 375.061 166.918 377.1 162.731 377.609Z"/>
</mask>
<path d="M138.037 374.186L80.5787 361.613L66.9899 423.717L129.96 432.446L138.037 374.186ZM162.731 377.609L154.655 435.869L162.235 436.92L169.831 435.997L162.731 377.609ZM162.63 371.493L183.536 316.516L177.307 314.148L170.706 313.233L162.63 371.493ZM139.333 368.263L147.409 310.003L93.5067 302.531L81.8747 355.691L139.333 368.263ZM138.037 374.186L129.96 432.446L154.655 435.869L162.731 377.609L170.808 319.349L146.113 315.926L138.037 374.186ZM162.731 377.609L169.831 435.997C173.605 435.538 179.043 434.599 185.049 432.519C188.055 431.478 192.664 429.654 197.738 426.545C202.318 423.74 211.083 417.596 217.932 406.409C225.981 393.261 229.393 376.115 224.465 358.779C220.23 343.884 211.461 334.607 206.605 330.223C197.391 321.905 187.412 317.99 183.536 316.516L162.63 371.493L141.724 426.469C141.332 426.321 139.922 425.772 137.93 424.715C136.19 423.792 132.224 421.553 127.78 417.542C123.701 413.859 115.376 405.235 111.313 390.945C106.557 374.214 109.869 357.625 117.606 344.988C124.143 334.31 132.384 328.628 136.288 326.237C140.686 323.542 144.467 322.084 146.553 321.362C150.72 319.919 153.951 319.426 155.632 319.222L162.731 377.609ZM162.63 371.493L170.706 313.233L147.409 310.003L139.333 368.263L131.256 426.523L154.553 429.753L162.63 371.493ZM139.333 368.263L81.8747 355.691L80.5787 361.613L138.037 374.186L195.495 386.758L196.791 380.836L139.333 368.263Z" fill="#C6E700" mask="url(#path-77-inside-30_346_3070)"/>
<mask id="path-79-inside-31_346_3070" fill="white">
<path d="M159.515 385.554L136.12 382.311L137.391 376.385L159.462 379.445C168.335 382.942 163.489 385.016 159.515 385.554Z"/>
</mask>
<path d="M136.12 382.311L78.6113 369.973L65.3298 431.877L128.043 440.571L136.12 382.311ZM159.515 385.554L151.438 443.814L159.424 444.921L167.413 443.839L159.515 385.554ZM159.462 379.445L181.031 324.725L174.496 322.149L167.539 321.184L159.462 379.445ZM137.391 376.385L145.468 318.125L91.3448 310.622L79.8827 364.047L137.391 376.385ZM136.12 382.311L128.043 440.571L151.438 443.814L159.515 385.554L167.591 327.294L144.196 324.051L136.12 382.311ZM159.515 385.554L167.413 443.839C171.276 443.315 176.811 442.266 182.908 440.002C185.381 439.083 203.656 432.802 215.057 413.338C222.484 400.659 225.671 384.383 221.306 367.8C217.47 353.23 209.236 343.861 204.28 339.153C195.055 330.391 184.945 326.267 181.031 324.725L159.462 379.445L137.894 434.165C137.364 433.956 135.81 433.323 133.686 432.147C131.798 431.101 127.734 428.689 123.265 424.445C119.04 420.431 111.223 411.712 107.546 397.746C103.34 381.765 106.428 366.047 113.555 353.88C119.696 343.397 127.531 337.59 131.534 334.989C135.933 332.13 139.763 330.54 141.954 329.727C146.301 328.112 149.741 327.524 151.617 327.27L159.515 385.554ZM159.462 379.445L167.539 321.184L145.468 318.125L137.391 376.385L129.315 434.645L151.386 437.705L159.462 379.445ZM137.391 376.385L79.8827 364.047L78.6113 369.973L136.12 382.311L193.629 394.649L194.9 388.723L137.391 376.385Z" fill="#C6E700" mask="url(#path-79-inside-31_346_3070)"/>
<mask id="path-81-inside-32_346_3070" fill="white">
<path d="M155.124 393.336L134.979 390.543L136.189 384.609L155.194 387.244C162.792 390.564 158.567 392.724 155.124 393.336Z"/>
</mask>
<path d="M134.979 390.543L77.3471 378.792L64.8259 440.198L126.902 448.804L134.979 390.543ZM155.124 393.336L147.048 451.596L156.263 452.874L165.422 451.245L155.124 393.336ZM155.194 387.244L178.749 333.349L171.311 330.098L163.271 328.983L155.194 387.244ZM136.189 384.609L144.265 326.349L89.5864 318.769L78.5573 372.857L136.189 384.609ZM134.979 390.543L126.902 448.804L147.048 451.596L155.124 393.336L163.201 335.076L143.055 332.283L134.979 390.543ZM155.124 393.336L165.422 451.245C169.57 450.508 175.363 449.105 181.663 446.288C185.407 444.614 201.67 437.296 211.474 418.459C217.401 407.069 220.048 392.983 216.98 378.377C214.145 364.885 207.393 355.433 202.354 349.901C193.258 339.917 182.872 335.151 178.749 333.349L155.194 387.244L131.639 441.138C131.315 440.997 123.25 437.746 115.391 429.119C110.971 424.266 104.566 415.454 101.858 402.561C98.9152 388.554 101.466 375.026 107.125 364.152C116.392 346.347 131.428 339.891 133.649 338.898C138.426 336.762 142.4 335.859 144.827 335.427L155.124 393.336ZM155.194 387.244L163.271 328.983L144.265 326.349L136.189 384.609L128.112 442.869L147.118 445.504L155.194 387.244ZM136.189 384.609L78.5573 372.857L77.3471 378.792L134.979 390.543L192.61 402.295L193.82 396.36L136.189 384.609Z" fill="#C6E700" mask="url(#path-81-inside-32_346_3070)"/>
<mask id="path-83-inside-33_346_3070" fill="white">
<path d="M162.4 366.379L162.769 363.716C163.362 363.911 164.639 364.515 165.001 365.369C165.363 366.222 163.418 366.398 162.4 366.379Z"/>
</mask>
<path d="M162.769 363.716L117.075 357.381L124.669 302.601L177.198 319.9L162.769 363.716ZM162.4 366.379L161.555 412.503L109.566 411.55L116.706 360.045L162.4 366.379ZM165.001 365.369L207.465 347.344L165.001 365.369ZM162.769 363.716L208.463 370.05L208.094 372.714L162.4 366.379L116.706 360.045L117.075 357.381L162.769 363.716ZM162.4 366.379L163.245 320.256C161.883 320.231 157.851 320.186 152.569 321.565C150.875 322.007 141.999 324.23 133.58 332.012C128.653 336.565 122.734 344.126 120.152 355.001C117.506 366.146 119.461 376.147 122.537 383.393L165.001 365.369L207.465 347.344C210.632 354.804 212.606 364.997 209.918 376.315C207.295 387.362 201.276 395.077 196.202 399.767C187.488 407.821 178.129 410.247 175.867 410.837C169.449 412.512 163.935 412.546 161.555 412.503L162.4 366.379ZM165.001 365.369L122.537 383.393C125.417 390.177 129.336 394.774 131.985 397.419C134.717 400.148 137.281 401.978 139.02 403.096C142.276 405.19 145.429 406.574 148.34 407.532L162.769 363.716L177.198 319.9C180.702 321.053 184.79 322.837 188.924 325.495C191.875 327.393 201.812 334.026 207.465 347.344L165.001 365.369Z" fill="#6A38F3" mask="url(#path-83-inside-33_346_3070)"/>
<mask id="path-85-inside-34_346_3070" fill="white">
<path d="M163.867 376.084L164.237 373.42C164.83 373.616 166.107 374.22 166.469 375.073C166.831 375.926 164.885 376.102 163.867 376.084Z"/>
</mask>
<path d="M164.237 373.42L118.542 367.086L126.136 312.305L178.666 329.604L164.237 373.42ZM163.867 376.084L163.022 422.207L111.033 421.254L118.173 369.749L163.867 376.084ZM166.469 375.073L208.933 357.049L166.469 375.073ZM164.237 373.42L209.931 379.755L209.561 382.418L163.867 376.084L118.173 369.749L118.542 367.086L164.237 373.42ZM163.867 376.084L164.712 329.96C163.35 329.935 159.318 329.891 154.036 331.269C152.343 331.711 143.467 333.934 135.047 341.716C130.12 346.269 124.202 353.83 121.619 364.705C118.973 375.85 120.929 385.851 124.005 393.097L166.469 375.073L208.933 357.049C212.099 364.508 214.073 374.701 211.386 386.019C208.763 397.067 202.744 404.781 197.669 409.471C188.955 417.525 179.597 419.951 177.335 420.541C170.916 422.216 165.403 422.25 163.022 422.207L163.867 376.084ZM166.469 375.073L124.005 393.097C126.884 399.882 130.804 404.478 133.452 407.123C136.185 409.852 138.749 411.682 140.487 412.8C143.744 414.895 146.897 416.278 149.807 417.237L164.237 373.42L178.666 329.604C182.169 330.758 186.257 332.541 190.391 335.199C193.343 337.097 203.28 343.73 208.933 357.049L166.469 375.073Z" fill="#6A38F3" mask="url(#path-85-inside-34_346_3070)"/>
<mask id="path-87-inside-35_346_3070" fill="white">
<path d="M160.69 383.787L161.059 381.123C161.652 381.319 162.929 381.923 163.291 382.776C163.653 383.629 161.708 383.805 160.69 383.787Z"/>
</mask>
<path d="M161.059 381.123L115.365 374.789L122.959 320.008L175.488 337.307L161.059 381.123ZM160.69 383.787L159.845 429.91L107.856 428.957L114.996 377.452L160.69 383.787ZM163.291 382.776L205.755 364.752L163.291 382.776ZM161.059 381.123L206.753 387.458L206.384 390.121L160.69 383.787L114.996 377.452L115.365 374.789L161.059 381.123ZM160.69 383.787L161.535 337.663C160.173 337.638 156.141 337.594 150.859 338.972C149.165 339.414 140.289 341.637 131.87 349.419C126.943 353.972 121.024 361.533 118.442 372.408C115.796 383.553 117.752 393.554 120.827 400.8L163.291 382.776L205.755 364.752C208.922 372.211 210.896 382.404 208.208 393.722C205.585 404.77 199.566 412.484 194.492 417.174C185.778 425.228 176.419 427.654 174.158 428.244C167.739 429.919 162.225 429.953 159.845 429.91L160.69 383.787ZM163.291 382.776L120.827 400.8C123.707 407.585 127.626 412.181 130.275 414.826C133.007 417.555 135.572 419.385 137.31 420.503C140.567 422.598 143.719 423.981 146.63 424.94L161.059 381.123L175.488 337.307C178.992 338.461 183.08 340.244 187.214 342.902C190.165 344.8 200.102 351.433 205.755 364.752L163.291 382.776Z" fill="#6A38F3" mask="url(#path-87-inside-35_346_3070)"/>
<mask id="path-89-inside-36_346_3070" fill="white">
<path d="M155.35 391.869L155.719 389.205C156.312 389.401 157.589 390.005 157.951 390.858C158.314 391.711 156.368 391.887 155.35 391.869Z"/>
</mask>
<path d="M155.719 389.205L110.025 382.871L117.619 328.091L170.148 345.389L155.719 389.205ZM155.35 391.869L154.505 437.992L102.516 437.039L109.656 385.534L155.35 391.869ZM157.951 390.858L200.416 372.834L157.951 390.858ZM155.719 389.205L201.413 395.54L201.044 398.203L155.35 391.869L109.656 385.534L110.025 382.871L155.719 389.205ZM155.35 391.869L156.195 345.745C154.833 345.72 150.801 345.676 145.519 347.054C143.825 347.496 134.949 349.719 126.53 357.501C121.603 362.054 115.684 369.615 113.102 380.49C110.456 391.635 112.412 401.636 115.487 408.882L157.951 390.858L200.416 372.834C203.582 380.293 205.556 390.486 202.869 401.804C200.245 412.852 194.226 420.566 189.152 425.256C180.438 433.31 171.08 435.736 168.818 436.326C162.399 438.001 156.885 438.036 154.505 437.992L155.35 391.869ZM157.951 390.858L115.487 408.882C118.367 415.667 122.286 420.263 124.935 422.908C127.668 425.637 130.232 427.467 131.97 428.585C135.227 430.68 138.38 432.063 141.29 433.022L155.719 389.205L170.148 345.389C173.652 346.543 177.74 348.326 181.874 350.984C184.825 352.882 194.762 359.515 200.416 372.834L157.951 390.858Z" fill="#6A38F3" mask="url(#path-89-inside-36_346_3070)"/>
<path d="M131.024 354.789L159.253 204.69M134.81 246.346L112.089 344.805" stroke="#F1F6E4" stroke-width="2.06557"/>
<mask id="path-92-inside-37_346_3070" fill="white">
<path d="M37.7287 288.346C35.2822 262.19 124.712 214.034 160.63 204.002L143.955 244.082C126.074 258.404 81.7512 288.094 72.2454 289.237C79.603 296.543 107.47 335.079 120.696 356.51L116.22 387.838C91.8277 371.887 39.8529 311.057 37.7287 288.346Z"/>
</mask>
<path d="M72.2454 289.237L75.7383 318.29L135.764 311.073L92.8643 268.473L72.2454 289.237ZM70.4336 288.346L99.6632 286.964L99.6632 286.964L70.4336 288.346ZM72.2454 289.237L68.7525 260.184C70.0074 260.033 76.261 259.269 83.4677 262.687C87.6321 264.663 92.0017 268.007 95.2404 273.083C98.4147 278.058 99.4799 283.089 99.6632 286.964L70.4336 288.346L41.204 289.728C41.4051 293.981 42.5636 299.329 45.9032 304.563C49.3074 309.898 53.9145 313.444 58.3852 315.564C66.2045 319.274 73.3462 318.577 75.7383 318.29L72.2454 289.237ZM70.4336 288.346L99.6632 286.964C99.7142 288.042 100.753 305.26 84.1006 313.971C76.5436 317.924 69.4586 317.525 65.6103 316.848C61.7702 316.173 58.9617 314.871 57.601 314.178C54.8738 312.788 53.1075 311.307 52.7208 310.985C52.0792 310.45 51.6908 310.064 51.6265 310.001L72.2454 289.237L92.8643 268.473C92.4453 268.057 89.0564 264.52 84.1626 262.028C82.6479 261.256 79.7044 259.904 75.7489 259.208C71.7853 258.511 64.6045 258.121 56.9721 262.114C40.169 270.904 41.1374 288.322 41.204 289.728L70.4336 288.346ZM160.63 204.002L214.665 226.483L260.958 115.214L144.886 147.635L160.63 204.002ZM37.7287 288.346L-20.5416 293.796L37.7287 288.346ZM116.22 387.838L84.1902 436.819L161.152 487.146L174.157 396.114L116.22 387.838ZM143.955 244.082L180.543 289.76L192.235 280.394L197.989 266.563L143.955 244.082ZM72.2454 289.237L65.2598 231.13L-54.7929 245.563L31.0076 330.765L72.2454 289.237ZM120.696 356.51L178.632 364.786L181.629 343.807L170.499 325.773L120.696 356.51ZM160.63 204.002L144.886 147.635C119.725 154.663 83.1471 172.17 53.8094 190.477C38.8799 199.793 22.9105 211.1 10.0846 223.55C3.71334 229.735 -3.60987 237.85 -9.47945 247.729C-15.0488 257.102 -22.4521 273.369 -20.5416 293.796L37.7287 288.346L95.9989 282.896C97.2978 296.783 92.154 305.824 91.1473 307.518C89.8405 309.718 89.3832 309.701 91.6131 307.536C95.9896 303.288 104.164 297.024 115.776 289.778C139.521 274.961 165.617 263.374 176.374 260.369L160.63 204.002ZM37.7287 288.346L-20.5416 293.796C-18.6525 313.993 -8.33514 332.102 -2.56786 341.601C4.7933 353.726 13.9792 366.199 23.2305 377.567C40.4636 398.743 64.1797 423.734 84.1902 436.819L116.22 387.838L148.25 338.856C148.25 338.856 147.869 338.604 147.082 337.997C146.315 337.405 145.319 336.598 144.097 335.547C141.629 333.424 138.642 330.654 135.259 327.286C128.466 320.522 120.977 312.239 114.017 303.687C106.96 295.015 101.229 287.024 97.4857 280.858C95.6114 277.771 94.7178 275.929 94.4305 275.264C93.8787 273.988 95.4471 276.996 95.9989 282.896L37.7287 288.346ZM143.955 244.082L107.367 198.404C100.499 203.906 86.7192 213.724 73.2364 222.421C66.5833 226.712 60.8726 230.166 56.7854 232.409C55.8156 232.941 55.052 233.342 54.4839 233.629C53.8961 233.926 53.6671 234.025 53.7471 233.99C53.7582 233.985 54.5431 233.634 55.9135 233.177C56.9424 232.834 60.3759 231.718 65.2598 231.13L72.2454 289.237L79.231 347.343C89.6326 346.092 98.1325 342.339 100.898 341.122C105.206 339.226 109.426 337.037 113.106 335.017C120.562 330.925 128.832 325.847 136.683 320.783C152.208 310.768 169.53 298.58 180.543 289.76L143.955 244.082ZM72.2454 289.237L31.0076 330.765C29.7548 329.52 30.6891 330.359 34.7927 335.656C38.1249 339.958 42.2993 345.567 46.8037 351.812C55.9656 364.515 65.3285 378.231 70.8923 387.247L120.696 356.51L170.499 325.773C162.837 313.358 151.653 297.091 141.736 283.341C133.149 271.435 121.317 255.488 113.483 247.709L72.2454 289.237ZM116.22 387.838L174.157 396.114L178.632 364.786L120.696 356.51L62.7593 348.233L58.2839 379.561L116.22 387.838ZM160.63 204.002L106.596 181.521L89.9203 221.601L143.955 244.082L197.989 266.563L214.665 226.483L160.63 204.002Z" fill="#C6E700" mask="url(#path-92-inside-37_346_3070)"/>
<path d="M129.991 247.556L135.251 244.28L138.942 244.28L131.368 250.133L129.991 247.556Z" fill="#C6E700"/>
<path d="M522.3 457.524V513.268L520.048 514.02H359.077V458.275L361.329 457.524H522.3Z" stroke="#C6E700" stroke-width="99.8347"/>
<path d="M309.16 422.311H510.016H528.158M309.16 422.311L308.512 563.937H528.158M309.16 422.311L353.219 407.607H572.217M528.158 563.937V422.311M528.158 563.937L572.217 549.233V407.607M528.158 422.311L572.217 407.607" stroke="#6A38F3" stroke-width="0.773913"/>
<mask id="path-97-inside-38_346_3070" fill="white">
<path d="M532.971 556.215V534.264L551.217 529.475V550.131L532.971 556.215Z"/>
</mask>
<path d="M532.971 534.264L516.271 470.637L467.188 483.52V534.264H532.971ZM532.971 556.215H467.188V647.495L553.78 618.62L532.971 556.215ZM551.217 550.131L572.026 612.536L616.999 597.539V550.131H551.217ZM551.217 529.475H616.999V444.199L534.517 465.848L551.217 529.475ZM532.971 534.264H467.188V556.215H532.971H598.754V534.264H532.971ZM532.971 556.215L553.78 618.62L572.026 612.536L551.217 550.131L530.407 487.727L512.162 493.811L532.971 556.215ZM551.217 550.131H616.999V529.475H551.217H485.434V550.131H551.217ZM551.217 529.475L534.517 465.848L516.271 470.637L532.971 534.264L549.671 597.892L567.917 593.103L551.217 529.475Z" fill="#F6F3E4" mask="url(#path-97-inside-38_346_3070)"/>
<mask id="path-99-inside-39_346_3070" fill="white">
<path d="M542.041 543.421L533.659 545.983L537.85 539.019L542.041 543.421Z"/>
</mask>
<path d="M542.041 543.421L533.659 545.983L537.85 539.019L542.041 543.421Z" fill="#6A38F3"/>
<path d="M533.659 545.983L494.857 526.558L433.999 627.691L533.659 597.221V545.983ZM542.041 543.421V594.659L641.701 564.19L580.844 500.269L542.041 543.421ZM537.85 539.019L576.653 495.867L537.85 455.111L499.048 519.593L537.85 539.019ZM533.659 545.983V597.221L542.041 594.659V543.421V492.182L533.659 494.745V545.983ZM542.041 543.421L580.844 500.269L576.653 495.867L537.85 539.019L499.048 582.171L503.238 586.572L542.041 543.421ZM537.85 539.019L499.048 519.593L494.857 526.558L533.659 545.983L572.462 565.409L576.653 558.444L537.85 539.019Z" fill="#6A38F3" mask="url(#path-99-inside-39_346_3070)"/>
<rect width="3.37094" height="5.68293" transform="matrix(0.956305 -0.292372 0 1 536.239 545.195)" fill="#6A38F3"/>
<mask id="path-102-inside-40_346_3070" fill="white">
<path d="M550.992 540.667L542.61 543.229L546.801 536.265L550.992 540.667Z"/>
</mask>
<path d="M550.992 540.667L542.61 543.229L546.801 536.265L550.992 540.667Z" fill="white"/>
<path d="M542.61 543.229L503.807 523.804L442.95 624.936L542.61 594.467V543.229ZM550.992 540.667V591.905L650.652 561.436L589.794 497.515L550.992 540.667ZM546.801 536.265L585.603 493.113L546.801 452.357L507.998 516.839L546.801 536.265ZM542.61 543.229V594.467L550.992 591.905V540.667V489.428L542.61 491.991V543.229ZM550.992 540.667L589.794 497.515L585.603 493.113L546.801 536.265L507.998 579.417L512.189 583.818L550.992 540.667ZM546.801 536.265L507.998 516.839L503.807 523.804L542.61 543.229L581.413 562.655L585.603 555.69L546.801 536.265Z" fill="white" mask="url(#path-102-inside-40_346_3070)"/>
<rect x="0.322364" y="0.238537" width="2.69675" height="5.00874" transform="matrix(0.956305 -0.292372 0 1 545.203 542.535)" fill="white" stroke="white" stroke-width="0.674188"/>
<mask id="path-105-inside-41_346_3070" fill="white">
<path d="M401.463 266.459H332.847L319.043 281.164V422.79H387.658L401.463 408.085V266.459Z"/>
</mask>
<path d="M332.847 266.459V166.624H289.636L260.061 198.128L332.847 266.459ZM401.463 266.459H501.297V166.624H401.463V266.459ZM401.463 408.085L474.249 476.416L501.297 447.604V408.085H401.463ZM387.658 422.79V522.624H430.869L460.445 491.121L387.658 422.79ZM319.043 281.164L246.256 212.832L219.208 241.645V281.164H319.043ZM319.043 422.79H219.208V522.624H319.043V422.79ZM332.847 266.459V366.294H401.463V266.459V166.624H332.847V266.459ZM401.463 266.459H301.628V408.085H401.463H501.297V266.459H401.463ZM401.463 408.085L328.676 339.754L314.872 354.458L387.658 422.79L460.445 491.121L474.249 476.416L401.463 408.085ZM332.847 266.459L260.061 198.128L246.256 212.832L319.043 281.164L391.829 349.495L405.633 334.79L332.847 266.459ZM319.043 281.164H219.208V422.79H319.043H418.877V281.164H319.043ZM319.043 422.79V522.624H387.658V422.79V322.955H319.043V422.79Z" fill="black" mask="url(#path-105-inside-41_346_3070)"/>
<path d="M319.043 281.164H381.974H387.658M319.043 281.164L318.84 422.79H387.658M319.043 281.164L332.847 266.459H401.462M387.658 422.79V281.164M387.658 422.79L401.462 408.085V266.459M387.658 281.164L401.462 266.459" stroke="#6A38F3"/>
<mask id="path-108-inside-42_346_3070" fill="white">
<path d="M390.5 411.955V390.004L399.432 381.772V402.902L390.5 411.955Z"/>
</mask>
<path d="M390.5 390.004L345.921 341.63L324.718 361.17V390.004H390.5ZM390.5 411.955H324.718V572.282L437.325 458.158L390.5 411.955ZM399.432 402.902L446.258 449.106L465.215 429.893V402.902H399.432ZM399.432 381.772H465.215V231.692L354.853 333.399L399.432 381.772ZM390.5 390.004H324.718V411.955H390.5H456.283V390.004H390.5ZM390.5 411.955L437.325 458.158L446.258 449.106L399.432 402.902L352.607 356.699L343.675 365.751L390.5 411.955ZM399.432 402.902H465.215V381.772H399.432H333.65V402.902H399.432ZM399.432 381.772L354.853 333.399L345.921 341.63L390.5 390.004L435.08 438.378L444.012 430.146L399.432 381.772Z" fill="#F6F3E4" mask="url(#path-108-inside-42_346_3070)"/>
<path d="M377.02 395.901V407.606H373.233V395.901H377.02Z" stroke="#F1F6E4" stroke-width="11.0164"/>
<mask id="path-111-inside-43_346_3070" fill="white">
<path d="M371.168 409.897C371.168 409.278 378.741 409.279 378.741 409.897C378.741 410.515 371.168 410.515 371.168 409.897Z"/>
</mask>
<path d="M371.168 409.897H372.545C372.545 410.622 372.003 410.944 371.97 410.964C371.865 411.027 371.805 411.037 371.864 411.02C371.961 410.993 372.168 410.954 372.5 410.918C373.143 410.848 374.036 410.81 374.955 410.81C375.873 410.81 376.766 410.848 377.409 410.918C377.741 410.954 377.948 410.993 378.045 411.02C378.104 411.037 378.044 411.028 377.94 410.964C377.907 410.944 377.364 410.623 377.364 409.897H378.741H380.119C380.119 409.094 379.517 408.7 379.373 408.613C379.158 408.481 378.935 408.41 378.787 408.368C378.47 408.279 378.085 408.221 377.707 408.18C376.93 408.096 375.93 408.056 374.955 408.056C373.98 408.056 372.979 408.096 372.202 408.18C371.824 408.221 371.439 408.279 371.122 408.368C370.974 408.409 370.751 408.481 370.536 408.612C370.392 408.7 369.791 409.094 369.791 409.897H371.168ZM371.168 409.897H369.791C369.791 410.7 370.392 411.094 370.536 411.181C370.751 411.313 370.974 411.385 371.122 411.426C371.439 411.515 371.824 411.573 372.202 411.614C372.979 411.698 373.98 411.738 374.955 411.738C375.929 411.738 376.93 411.698 377.707 411.614C378.085 411.573 378.47 411.515 378.787 411.426C378.935 411.385 379.158 411.313 379.373 411.182C379.517 411.094 380.119 410.7 380.119 409.897H378.741H377.364C377.364 409.171 377.907 408.85 377.94 408.83C378.044 408.766 378.104 408.757 378.045 408.774C377.948 408.801 377.741 408.84 377.409 408.876C376.766 408.946 375.873 408.984 374.955 408.984C374.036 408.984 373.143 408.946 372.5 408.876C372.168 408.84 371.961 408.801 371.864 408.774C371.805 408.757 371.866 408.766 371.97 408.83C372.003 408.85 372.545 409.172 372.545 409.897H371.168Z" fill="black" mask="url(#path-111-inside-43_346_3070)"/>
<path d="M376.469 397.279C376.373 397.769 376.242 398.258 376.067 398.695C375.604 399.849 375.178 399.949 374.955 399.949C374.732 399.949 374.306 399.85 373.843 398.695C373.667 398.258 373.536 397.769 373.44 397.279H376.469Z" stroke="black" stroke-width="4.13114"/>
<path d="M374.955 401.396V409.433" stroke="black" stroke-width="0.344262"/>
<mask id="path-115-inside-44_346_3070" fill="white">
<path d="M374.954 396.246V394.869H375.643V396.246L376.676 396.935L374.954 398.312L375.643 396.935L374.954 396.246Z"/>
</mask>
<path d="M374.954 394.869V393.492H373.577V394.869H374.954ZM374.954 396.246H373.577V396.816L373.981 397.22L374.954 396.246ZM375.643 396.935L376.875 397.55L377.318 396.663L376.617 395.961L375.643 396.935ZM374.954 398.312L373.723 397.696L375.815 399.387L374.954 398.312ZM376.676 396.935L377.536 398.01L379.006 396.833L377.44 395.789L376.676 396.935ZM375.643 396.246H374.266V396.983L374.879 397.392L375.643 396.246ZM375.643 394.869H377.02V393.492H375.643V394.869ZM374.954 394.869H373.577V396.246H374.954H376.331V394.869H374.954ZM374.954 396.246L373.981 397.22L374.669 397.908L375.643 396.935L376.617 395.961L375.928 395.272L374.954 396.246ZM375.643 396.935L374.411 396.319L373.723 397.696L374.954 398.312L376.186 398.927L376.875 397.55L375.643 396.935ZM374.954 398.312L375.815 399.387L377.536 398.01L376.676 396.935L375.815 395.859L374.094 397.236L374.954 398.312ZM376.676 396.935L377.44 395.789L376.407 395.1L375.643 396.246L374.879 397.392L375.912 398.08L376.676 396.935ZM375.643 396.246H377.02V394.869H375.643H374.266V396.246H375.643ZM375.643 394.869V393.492H374.954V394.869V396.246H375.643V394.869Z" fill="#F1F6E4" mask="url(#path-115-inside-44_346_3070)"/>
<path d="M500.774 314.999V371.495H443.504V314.999H500.774Z" stroke="#6A38F3" stroke-width="99.8347"/>
<path d="M393.587 279.786H513.544H524.379M393.587 279.786L393.2 421.413H524.379M393.587 279.786L419.9 265.082H550.692M524.379 421.413V279.786M524.379 421.413L550.692 406.708V265.082M524.379 279.786L550.692 265.082" stroke="#C6E700" stroke-width="0.773913"/>
<mask id="path-119-inside-45_346_3070" fill="white">
<path d="M529.796 410.578V388.627L546.822 380.395V401.525L529.796 410.578Z"/>
</mask>
<path d="M529.796 388.627L501.163 329.403L464.014 347.363V388.627H529.796ZM529.796 410.578H464.014V520.056L560.678 468.661L529.796 410.578ZM546.822 401.525L577.704 459.609L612.605 441.052V401.525H546.822ZM546.822 380.395H612.605V275.524L518.189 321.171L546.822 380.395ZM529.796 388.627H464.014V410.578H529.796H595.579V388.627H529.796ZM529.796 410.578L560.678 468.661L577.704 459.609L546.822 401.525L515.94 343.442L498.914 352.494L529.796 410.578ZM546.822 401.525H612.605V380.395H546.822H481.04V401.525H546.822ZM546.822 380.395L518.189 321.171L501.163 329.403L529.796 388.627L558.429 447.851L575.455 439.619L546.822 380.395Z" fill="#F6F3E4" mask="url(#path-119-inside-45_346_3070)"/>
<mask id="path-121-inside-46_346_3070" fill="white">
<path d="M538.236 397.687L530.57 401.936L534.403 394.128L538.236 397.687Z"/>
</mask>
<path d="M538.236 397.687L530.57 401.936L534.403 394.128L538.236 397.687Z" fill="#C6E700"/>
<path d="M530.57 401.936L495.082 390.319L439.423 503.698L530.57 453.174V401.936ZM538.236 397.687V448.925L629.383 398.401L573.724 346.727L538.236 397.687ZM534.403 394.128L569.891 343.168L534.403 310.221L498.915 382.511L534.403 394.128ZM530.57 401.936V453.174L538.236 448.925V397.687V346.449L530.57 350.698V401.936ZM538.236 397.687L573.724 346.727L569.891 343.168L534.403 394.128L498.915 445.088L502.747 448.647L538.236 397.687ZM534.403 394.128L498.915 382.511L495.082 390.319L530.57 401.936L566.058 413.553L569.891 405.746L534.403 394.128Z" fill="#C6E700" mask="url(#path-121-inside-46_346_3070)"/>
<rect width="3.37094" height="5.68293" transform="matrix(0.87462 -0.48481 0 1 532.929 400.628)" fill="#C6E700"/>
<mask id="path-124-inside-47_346_3070" fill="white">
<path d="M546.749 393.043L539.083 397.292L542.916 389.485L546.749 393.043Z"/>
</mask>
<path d="M546.749 393.043L539.083 397.292L542.916 389.485L546.749 393.043Z" fill="white"/>
<path d="M539.083 397.292L503.595 385.675L447.936 499.055L539.083 448.531V397.292ZM546.749 393.043V444.282L637.896 393.758L582.237 342.083L546.749 393.043ZM542.916 389.485L578.404 338.525L542.916 305.577L507.428 377.868L542.916 389.485ZM539.083 397.292V448.531L546.749 444.282V393.043V341.805L539.083 346.054V397.292ZM546.749 393.043L582.237 342.083L578.404 338.525L542.916 389.485L507.428 440.445L511.261 444.003L546.749 393.043ZM542.916 389.485L507.428 377.868L503.595 385.675L539.083 397.292L574.571 408.91L578.404 401.102L542.916 389.485Z" fill="white" mask="url(#path-124-inside-47_346_3070)"/>
<rect x="0.294829" y="0.173667" width="2.69675" height="5.00874" transform="matrix(0.87462 -0.48481 0 1 541.479 396.128)" fill="white" stroke="white" stroke-width="0.674188"/>
<mask id="path-127-inside-48_346_3070" fill="white">
<path d="M343.283 267.644C315.588 239.95 259.219 214.233 234.496 204.836L249.299 247.869C269.611 261.225 305.798 282.658 321.938 289.869C340.956 298.365 413.401 287.699 435.889 280.918V263.705C411.284 263.256 360.945 262.053 343.283 267.644Z"/>
</mask>
<path d="M234.496 204.836L258.469 141.763L123.84 90.5937L170.69 226.785L234.496 204.836ZM343.283 267.644L295.57 315.357L324.56 344.346L363.645 331.974L343.283 267.644ZM249.299 247.869L185.493 269.818L192.985 291.595L212.227 304.248L249.299 247.869ZM321.938 289.869L349.463 228.263L349.463 228.263L321.938 289.869ZM435.889 280.918L455.368 345.521L503.365 331.049V280.918H435.889ZM435.889 263.705H503.365V197.451L437.122 196.241L435.889 263.705ZM234.496 204.836L210.523 267.91C220.369 271.652 237.985 279.248 255.898 288.85C274.901 299.035 288.862 308.648 295.57 315.357L343.283 267.644L390.995 219.932C370.009 198.946 341.938 181.853 319.652 169.908C296.276 157.378 273.345 147.417 258.469 141.763L234.496 204.836ZM249.299 247.869L212.227 304.248C233.218 318.05 273.112 341.958 294.414 351.475L321.938 289.869L349.463 228.263C338.484 223.358 306.003 204.399 286.371 191.49L249.299 247.869ZM321.938 289.869L294.414 351.475C313.221 359.878 334.057 360.391 343.993 360.481C357.281 360.601 371.575 359.606 384.675 358.227C409.855 355.577 438.321 350.661 455.368 345.521L435.889 280.918L416.411 216.315C410.969 217.956 391.968 221.763 370.55 224.018C360.35 225.091 351.562 225.593 345.214 225.536C343.717 225.522 342.525 225.478 341.622 225.424C341.177 225.398 340.834 225.37 340.588 225.348C340.466 225.336 340.374 225.327 340.31 225.32C340.245 225.312 340.214 225.308 340.214 225.308C340.215 225.308 340.252 225.313 340.324 225.325C340.396 225.336 340.51 225.354 340.663 225.382C340.958 225.436 341.464 225.535 342.148 225.703C343.352 225.997 346.004 226.718 349.463 228.263L321.938 289.869ZM435.889 280.918H503.365V263.705H435.889H368.414V280.918H435.889ZM435.889 263.705L437.122 196.241C425.246 196.024 405.096 195.575 385.691 195.947C375.972 196.133 365.564 196.536 355.839 197.39C347.3 198.141 334.719 199.58 322.92 203.315L343.283 267.644L363.645 331.974C360.678 332.913 361.013 332.406 367.648 331.823C373.099 331.345 380.125 331.029 388.274 330.873C404.606 330.56 421.927 330.937 434.657 331.169L435.889 263.705ZM234.496 204.836L170.69 226.785L185.493 269.818L249.299 247.869L313.105 225.92L298.301 182.887L234.496 204.836Z" fill="#C6E700" mask="url(#path-127-inside-48_346_3070)"/>
<mask id="path-129-inside-49_346_3070" fill="white">
<path d="M483.053 266.093C480.299 262.65 445.514 261.985 435.2 263.705V280.918C450.428 282.407 458.115 281.607 469.627 276.076L483.053 266.093Z"/>
</mask>
<path d="M435.2 263.705L427.95 220.24L391.135 226.381V263.705H435.2ZM483.053 266.093L509.347 301.453L545.981 274.213L517.462 238.565L483.053 266.093ZM435.2 280.918H391.135V320.887L430.914 324.775L435.2 280.918ZM469.627 276.076L488.709 315.796L492.524 313.963L495.921 311.437L469.627 276.076ZM435.2 263.705L442.451 307.17C441.825 307.275 441.976 307.217 443.265 307.125C444.393 307.044 445.923 306.968 447.807 306.918C451.587 306.818 456.056 306.84 460.335 306.998C464.789 307.163 468.117 307.442 469.909 307.687C470.942 307.827 470.332 307.806 468.794 307.378C468.054 307.171 465.978 306.567 463.309 305.302C461.925 304.647 459.874 303.576 457.542 301.954C455.288 300.386 451.922 297.718 448.644 293.62L483.053 266.093L517.462 238.565C511.102 230.615 503.698 226.916 501.041 225.657C497.555 224.005 494.439 223.035 492.464 222.484C488.456 221.367 484.597 220.743 481.82 220.364C475.993 219.569 469.464 219.144 463.588 218.927C452.928 218.533 437.828 218.592 427.95 220.24L435.2 263.705ZM435.2 280.918L430.914 324.775C439.637 325.627 449.348 326.186 459.658 324.805C470.661 323.331 479.968 319.995 488.709 315.796L469.627 276.076L450.544 236.357C449.005 237.096 448.262 237.355 448.033 237.429C447.923 237.464 447.898 237.468 447.931 237.46C447.965 237.452 447.983 237.45 447.956 237.454C447.737 237.483 445.992 237.697 439.487 237.062L435.2 280.918ZM435.2 263.705H391.135V280.918H435.2H479.266V263.705H435.2ZM469.627 276.076L495.921 311.437L509.347 301.453L483.053 266.093L456.759 230.732L443.332 240.715L469.627 276.076Z" fill="#C6E700" mask="url(#path-129-inside-49_346_3070)"/>
<path d="M467.561 274.377C470.069 272.161 477.779 269.53 484.43 275.41" stroke="#C6E700" stroke-width="4.13114" stroke-linecap="round"/>
<path d="M469.627 271.956C472.57 269.739 480.409 266.776 488.217 272.656" stroke="#C6E700" stroke-width="4.13114" stroke-linecap="round"/>
<path d="M468.25 269.202C471.193 266.985 479.032 264.022 486.84 269.902" stroke="#C6E700" stroke-width="4.13114" stroke-linecap="round"/>
<path d="M464.575 276.869C476.262 278.781 481.573 280.023 461.02 278.853L464.575 276.869Z" stroke="#C6E700" stroke-width="4.13114" stroke-linecap="round"/>
<mask id="path-135-inside-50_346_3070" fill="white">
<path d="M472.381 279.781L473.084 277.476C474.502 277.986 474.955 278.414 474.988 279.495C474.333 280.218 473.698 280.171 472.381 279.781Z"/>
</mask>
<path d="M473.084 277.476L476.811 267.109L465.92 263.193L462.546 274.264L473.084 277.476ZM472.381 279.781L461.843 276.57L458.608 287.185L469.248 290.342L472.381 279.781ZM474.988 279.495L483.153 286.891L486.134 283.599L485.999 279.159L474.988 279.495ZM473.084 277.476L462.546 274.264L461.843 276.57L472.381 279.781L482.919 282.992L483.622 280.687L473.084 277.476ZM472.381 279.781L469.248 290.342C469.818 290.511 472.091 291.238 474.744 291.042C478.465 290.767 481.287 288.95 483.153 286.891L474.988 279.495L466.822 272.1C467.289 271.585 468.108 270.813 469.335 270.163C470.623 269.481 471.941 269.156 473.122 269.069C474.194 268.99 474.987 269.119 475.289 269.176C475.586 269.232 475.721 269.281 475.515 269.219L472.381 279.781ZM474.988 279.495L485.999 279.159C485.933 277.004 485.336 273.586 482.492 270.632C480.287 268.34 477.661 267.415 476.811 267.109L473.084 277.476L469.356 287.842C469.477 287.886 469.222 287.804 468.806 287.583C468.373 287.353 467.514 286.842 466.618 285.911C465.644 284.899 464.911 283.687 464.464 282.395C464.056 281.216 463.989 280.263 463.976 279.831L474.988 279.495Z" fill="#6A38F3" mask="url(#path-135-inside-50_346_3070)"/>
<mask id="path-137-inside-51_346_3070" fill="white">
<path d="M485.119 275.41L486.151 274.377C485.692 273.804 484.637 272.725 484.086 273C483.535 273.276 484.545 274.722 485.119 275.41Z"/>
</mask>
<path d="M486.151 274.377L493.941 282.167L500.913 275.195L494.754 267.495L486.151 274.377ZM485.119 275.41L476.655 282.463L484.378 291.73L492.908 283.2L485.119 275.41ZM486.151 274.377L478.362 266.588L477.329 267.62L485.119 275.41L492.908 283.2L493.941 282.167L486.151 274.377ZM485.119 275.41L493.582 268.358C493.618 268.402 493.63 268.418 493.643 268.437C493.654 268.451 493.68 268.489 493.719 268.551C493.755 268.609 493.826 268.725 493.915 268.893C493.96 268.978 494.595 270.112 494.842 271.853C494.973 272.777 495.11 274.652 494.325 276.855C493.418 279.398 491.549 281.585 489.012 282.854L484.086 273L479.159 263.147C476.484 264.484 474.527 266.777 473.572 269.454C472.738 271.792 472.869 273.83 473.026 274.939C473.325 277.051 474.146 278.641 474.446 279.207C475.199 280.629 476.12 281.819 476.655 282.463L485.119 275.41ZM484.086 273L489.012 282.854C485.118 284.801 481.671 283.709 480.585 283.287C479.328 282.798 478.546 282.19 478.341 282.028C477.862 281.651 477.652 281.387 477.549 281.259L486.151 274.377L494.754 267.495C494.192 266.793 493.225 265.704 491.965 264.712C491.369 264.244 490.192 263.382 488.567 262.75C487.114 262.186 483.329 261.062 479.159 263.147L484.086 273Z" fill="#6A38F3" mask="url(#path-137-inside-51_346_3070)"/>
<path d="M489.594 271.787L488.635 272.656L489.259 272.082L489.594 271.787Z" stroke="#6A38F3" stroke-width="11.0164"/>
<path d="M488.217 268.634L487.578 269.213L487.998 268.827L488.217 268.634Z" stroke="#6A38F3" stroke-width="11.0164"/>
</svg>
