<svg width="26" height="26" viewBox="0 0 26 26" fill="none" xmlns="http://www.w3.org/2000/svg">
<path d="M16.2301 12.984C16.2301 13.8449 15.8881 14.6705 15.2793 15.2793C14.6706 15.888 13.8449 16.23 12.984 16.23C12.1232 16.23 11.2975 15.888 10.6888 15.2793C10.08 14.6705 9.73804 13.8449 9.73804 12.984C9.73804 12.1231 10.08 11.2975 10.6888 10.6887C11.2975 10.08 12.1232 9.73801 12.984 9.73801C13.8449 9.73801 14.6706 10.08 15.2793 10.6887C15.8881 11.2975 16.2301 12.1231 16.2301 12.984Z" stroke="#858585" stroke-linecap="round" stroke-linejoin="round"/>
<path d="M2.16406 12.984C3.89527 8.55106 7.93763 5.41 12.9841 5.41C18.0306 5.41 22.0729 8.55106 23.8041 12.984C22.0729 17.417 18.0306 20.5581 12.9841 20.5581C7.93763 20.5581 3.89527 17.417 2.16406 12.984Z" stroke="#858585" stroke-linecap="round" stroke-linejoin="round"/>
</svg>
